<svg width="27" height="27" viewBox="0 0 27 27" fill="none" xmlns="http://www.w3.org/2000/svg">
<path d="M5.4003 2.92097L13.5003 11.021L21.6003 2.94552C21.7598 2.78325 21.9512 2.65583 22.1625 2.57134C22.3737 2.48684 22.6002 2.44709 22.8276 2.45461C23.2738 2.48349 23.6942 2.67378 24.0104 2.98996C24.3266 3.30614 24.5169 3.72658 24.5458 4.17279C24.548 4.39218 24.5056 4.60974 24.4212 4.81227C24.3368 5.01479 24.2122 5.19807 24.0549 5.35097L15.9303 13.5001L24.0549 21.6492C24.3739 21.9584 24.5507 22.3855 24.5458 22.8273C24.5169 23.2735 24.3266 23.694 24.0104 24.0102C23.6942 24.3263 23.2738 24.5166 22.8276 24.5455C22.6002 24.553 22.3737 24.5133 22.1625 24.4288C21.9512 24.3443 21.7598 24.2169 21.6003 24.0546L13.5003 15.9792L5.42485 24.0546C5.26537 24.2169 5.07395 24.3443 4.8627 24.4288C4.65146 24.5133 4.42497 24.553 4.19758 24.5455C3.74304 24.5219 3.31339 24.3307 2.99155 24.0088C2.66971 23.687 2.47851 23.2573 2.45485 22.8028C2.45263 22.5834 2.49499 22.3658 2.57938 22.1633C2.66377 21.9608 2.78841 21.7775 2.94576 21.6246L11.0703 13.5001L2.92121 5.35097C2.7683 5.196 2.64819 5.0118 2.56806 4.80937C2.48793 4.60694 2.44943 4.39044 2.45485 4.17279C2.48372 3.72658 2.67402 3.30614 2.9902 2.98996C3.30637 2.67378 3.72682 2.48349 4.17303 2.45461C4.39866 2.44389 4.62407 2.47977 4.83522 2.56001C5.04637 2.64025 5.23873 2.76312 5.4003 2.92097Z" fill="white"/>
</svg>
