<svg width="67" height="67" viewBox="0 0 67 67" fill="none" xmlns="http://www.w3.org/2000/svg">
<path fill-rule="evenodd" clip-rule="evenodd" d="M6.88006 13.1608L1.78806 8.06883C1.64165 7.92204 1.45495 7.82204 1.25163 7.78149C1.04831 7.74094 0.837523 7.76167 0.646 7.84106C0.454478 7.92045 0.290841 8.05492 0.175834 8.22743C0.0608277 8.39993 -0.000369263 8.60269 1.67636e-06 8.81002V24.0776C1.67636e-06 24.6555 0.469002 25.1245 1.04688 25.1245H16.3145C16.5218 25.1249 16.7246 25.0637 16.8971 24.9487C17.0696 24.8337 17.2041 24.67 17.2835 24.4785C17.3628 24.287 17.3836 24.0762 17.343 23.8729C17.3025 23.6696 17.2025 23.4829 17.0557 23.3365L11.3691 17.6498C15.076 12.4726 20.4807 8.75885 26.6428 7.15473C32.8049 5.5506 39.3344 6.15764 45.0952 8.87022C50.856 11.5828 55.4835 16.2292 58.1725 22.0011C60.8615 27.7729 61.4418 34.3048 59.8125 40.4603C58.1831 46.6158 54.4473 52.0053 49.255 55.691C44.0626 59.3767 37.7424 61.1254 31.394 60.6328C25.0456 60.1401 19.0709 57.4374 14.5093 52.9948C9.94769 48.5521 7.08801 42.6509 6.42781 36.3177C6.3423 35.4886 5.93094 34.7275 5.28424 34.2018C4.63754 33.676 3.80847 33.4287 2.97941 33.5142C2.15035 33.5997 1.38922 34.011 0.863454 34.6577C0.33769 35.3045 0.0903609 36.1335 0.175877 36.9626C0.981502 44.7146 4.46452 51.9433 10.0253 57.4042C15.5861 62.8651 22.8768 66.2164 30.6422 66.8814C38.4076 67.5463 46.1618 65.4832 52.5701 61.0472C58.9783 56.6112 63.6396 50.0799 65.7514 42.5777C67.8632 35.0754 67.2935 27.0716 64.1402 19.9442C60.987 12.8167 55.4476 7.01155 48.4756 3.52803C41.5036 0.0445144 33.5353 -0.899389 25.9424 0.858818C18.3495 2.61703 11.6071 6.96733 6.87588 13.1608H6.88006ZM32.4531 16.7495C33.2861 16.7495 34.0849 17.0804 34.6739 17.6694C35.2629 18.2584 35.5938 19.0572 35.5938 19.8901V32.4191L44.086 35.8194C44.8344 36.1456 45.4263 36.7505 45.7363 37.5057C46.0464 38.2609 46.0501 39.1072 45.7468 39.8651C45.4435 40.6231 44.857 41.2331 44.1116 41.566C43.3662 41.8989 42.5204 41.9285 41.7536 41.6484L31.2848 37.4609C30.7026 37.2276 30.2036 36.8253 29.8521 36.3058C29.5006 35.7864 29.3126 35.1736 29.3125 34.5464V19.8901C29.3125 19.0572 29.6434 18.2584 30.2324 17.6694C30.8214 17.0804 31.6202 16.7495 32.4531 16.7495Z" fill="#828282"/>
</svg>