<svg width="307" height="214" viewBox="0 0 307 214" fill="none" xmlns="http://www.w3.org/2000/svg">
<path d="M307 22.4907H0V213.663H307V22.4907Z" fill="#E6E6E6"/>
<path d="M76.815 59.3196H20.5879V95.8672H76.815V59.3196Z" fill="white"/>
<path d="M146.68 59.3196H90.4531V95.8672H146.68V59.3196Z" fill="white"/>
<path d="M216.547 59.3196H160.32V95.8672H216.547V59.3196Z" fill="white"/>
<path d="M286.413 59.3196H230.186V95.8672H286.413V59.3196Z" fill="white"/>
<path d="M76.815 111.049H20.5879V147.596H76.815V111.049Z" fill="white"/>
<path d="M146.68 111.049H90.4531V147.596H146.68V111.049Z" fill="white"/>
<path d="M216.547 111.049H160.32V147.596H216.547V111.049Z" fill="white"/>
<path d="M286.413 111.049H230.186V147.596H286.413V111.049Z" fill="white"/>
<path d="M76.815 162.778H20.5879V199.325H76.815V162.778Z" fill="white"/>
<path d="M146.68 162.778H90.4531V199.325H146.68V162.778Z" fill="white"/>
<path d="M216.547 162.778H160.32V199.325H216.547V162.778Z" fill="white"/>
<path d="M286.413 162.778H230.186V199.325H286.413V162.778Z" fill="white"/>
<path d="M80.4048 44.9817C85.0628 44.9817 88.8388 41.2056 88.8388 36.5476C88.8388 31.8896 85.0628 28.1135 80.4048 28.1135C75.7468 28.1135 71.9707 31.8896 71.9707 36.5476C71.9707 41.2056 75.7468 44.9817 80.4048 44.9817Z" fill="white"/>
<path d="M219.848 44.9816C224.506 44.9816 228.282 41.2056 228.282 36.5476C228.282 31.8896 224.506 28.1135 219.848 28.1135C215.19 28.1135 211.414 31.8896 211.414 36.5476C211.414 41.2056 215.19 44.9816 219.848 44.9816Z" fill="white"/>
<path d="M83.7785 0H77.0312V38.7967H83.7785V0Z" fill="#E6E6E6"/>
<path d="M223.222 0H216.475V38.7967H223.222V0Z" fill="#E6E6E6"/>
<path d="M271.015 77.5934C271.012 80.6468 269.907 83.5966 267.904 85.9008C265.9 88.205 263.132 89.7088 260.109 90.136C257.086 90.5631 254.01 89.8848 251.446 88.2257C248.883 86.5666 247.004 84.0383 246.156 81.1051C245.307 78.172 245.546 75.0311 246.827 72.2597C248.109 69.4882 250.347 67.2723 253.132 66.0192C255.916 64.766 259.059 64.5597 261.984 65.4382C264.908 66.3168 267.417 68.2211 269.05 70.8013C270.336 72.8332 271.017 75.1888 271.015 77.5934Z" fill="#F9A826"/>
<path d="M269.051 70.8013L256.534 83.3152C255.748 82.0973 251.365 76.4375 251.365 76.4375C251.927 75.8699 252.526 75.3408 253.159 74.8539L256.793 79.6995L267.585 68.908C268.132 69.4914 268.623 70.1253 269.051 70.8013Z" fill="white"/>
<path d="M131.28 129.322C131.277 132.376 130.173 135.326 128.169 137.63C126.166 139.934 123.398 141.438 120.375 141.865C117.351 142.292 114.275 141.614 111.712 139.955C109.149 138.296 107.27 135.767 106.421 132.834C105.573 129.901 105.811 126.76 107.093 123.989C108.374 121.217 110.613 119.001 113.397 117.748C116.182 116.495 119.325 116.289 122.249 117.167C125.173 118.046 127.683 119.95 129.315 122.53C130.601 124.562 131.283 126.918 131.28 129.322Z" fill="#F9A826"/>
<path d="M129.316 122.53L116.8 135.044C116.013 133.826 111.631 128.167 111.631 128.167C112.193 127.599 112.792 127.07 113.425 126.583L117.059 131.429L127.851 120.637C128.398 121.22 128.889 121.854 129.316 122.53Z" fill="white"/>
<path d="M61.4153 129.322C61.4124 132.376 60.3077 135.326 58.3042 137.63C56.3007 139.934 53.5329 141.438 50.5095 141.865C47.4861 142.292 44.4101 141.614 41.8467 139.955C39.2833 138.296 37.4047 135.767 36.5561 132.834C35.7075 129.901 35.9459 126.76 37.2275 123.989C38.5091 121.217 40.7477 119.001 43.5322 117.748C46.3166 116.495 49.4597 116.289 52.384 117.167C55.3084 118.046 57.8174 119.95 59.4502 122.53C60.736 124.562 61.4175 126.918 61.4153 129.322Z" fill="#F9A826"/>
<path d="M59.4491 122.53L46.9329 135.044C46.1462 133.826 41.7637 128.167 41.7637 128.167C42.3253 127.599 42.9247 127.07 43.5576 126.583L47.1918 131.429L57.9834 120.637C58.5307 121.22 59.0214 121.854 59.4491 122.53Z" fill="white"/>
</svg>