<svg width="106" height="106" viewBox="0 0 106 106" fill="none" xmlns="http://www.w3.org/2000/svg">
<path d="M53.0004 13.2632C51.2621 13.2632 49.5409 13.6056 47.9349 14.2708C46.329 14.936 44.8698 15.911 43.6406 17.1401C42.4115 18.3693 41.4365 19.8285 40.7713 21.4344C40.1061 23.0404 39.7637 24.7617 39.7637 26.4999C39.7637 28.2382 40.1061 29.9595 40.7713 31.5654C41.4365 33.1714 42.4115 34.6306 43.6406 35.8597C44.8698 37.0889 46.329 38.0639 47.9349 38.7291C49.5409 39.3943 51.2621 39.7367 53.0004 39.7367C56.511 39.7367 59.8778 38.3421 62.3602 35.8597C64.8426 33.3774 66.2372 30.0105 66.2372 26.4999C66.2372 22.9893 64.8426 19.6225 62.3602 17.1401C59.8778 14.6578 56.511 13.2632 53.0004 13.2632Z" fill="#828282"/>
<path d="M82.8125 19.875C80.1769 19.875 77.6493 20.922 75.7856 22.7856C73.922 24.6493 72.875 27.1769 72.875 29.8125C72.875 32.4481 73.922 34.9757 75.7856 36.8394C77.6493 38.703 80.1769 39.75 82.8125 39.75C85.4481 39.75 87.9757 38.703 89.8394 36.8394C91.703 34.9757 92.75 32.4481 92.75 29.8125C92.75 27.1769 91.703 24.6493 89.8394 22.7856C87.9757 20.922 85.4481 19.875 82.8125 19.875Z" fill="#828282"/>
<path d="M23.1875 19.875C20.5519 19.875 18.0243 20.922 16.1606 22.7856C14.297 24.6493 13.25 27.1769 13.25 29.8125C13.25 32.4481 14.297 34.9757 16.1606 36.8394C18.0243 38.703 20.5519 39.75 23.1875 39.75C25.8231 39.75 28.3507 38.703 30.2144 36.8394C32.078 34.9757 33.125 32.4481 33.125 29.8125C33.125 27.1769 32.078 24.6493 30.2144 22.7856C28.3507 20.922 25.8231 19.875 23.1875 19.875Z" fill="#828282"/>
<path d="M33.125 52.9536C33.1372 51.2046 33.8406 49.5314 35.0817 48.299C36.3228 47.0666 38.0009 46.375 39.75 46.375H66.25C68.0071 46.375 69.6922 47.073 70.9346 48.3154C72.177 49.5578 72.875 51.2429 72.875 53V72.875C72.8746 74.96 72.5482 77.0322 71.9077 79.0164C70.4408 83.5128 67.4189 87.3389 63.3848 89.8078C59.3506 92.2767 54.5685 93.2265 49.897 92.4868C45.2256 91.7471 40.9709 89.3662 37.8969 85.7717C34.8229 82.1773 33.131 77.6047 33.125 72.875V53V52.9536Z" fill="#828282"/>
<path d="M26.5 53C26.5 50.5819 27.1426 48.3227 28.2755 46.375H13.25C11.4929 46.375 9.80785 47.073 8.56542 48.3154C7.32299 49.5578 6.625 51.2429 6.625 53V69.5625C6.6241 72.2741 7.289 74.9445 8.56131 77.3392C9.83362 79.7338 11.6744 81.7794 13.9221 83.2964C16.1697 84.8133 18.7554 85.7552 21.4521 86.0393C24.1488 86.3235 26.8741 85.9411 29.3885 84.9259C27.4817 81.1932 26.4915 77.0599 26.5 72.8684V53Z" fill="#828282"/>
<path d="M79.5018 53V72.875C79.5018 77.2144 78.4617 81.3086 76.6133 84.9259C79.1277 85.9411 81.8529 86.3235 84.5497 86.0393C87.2464 85.7552 89.8321 84.8133 92.0797 83.2964C94.3274 81.7794 96.1682 79.7338 97.4405 77.3392C98.7128 74.9445 99.3777 72.2741 99.3768 69.5625V53C99.3768 51.2429 98.6788 49.5578 97.4364 48.3154C96.1939 47.073 94.5088 46.375 92.7518 46.375H77.7263C78.8525 48.3227 79.5018 50.5819 79.5018 53Z" fill="#828282"/>
</svg>