<svg width="402" height="370" viewBox="0 0 402 370" fill="none" xmlns="http://www.w3.org/2000/svg">
<path d="M367.132 168.212C367.132 190.098 361.948 208.113 352.956 223.546C349.988 228.63 346.619 233.468 342.881 238.015C309.825 278.445 248.367 300.574 192.821 336.418C28.8593 442.22 11.0991 272.683 18.5044 168.212C21.4914 126.058 37.9075 87.4446 63.9878 57.8795C69.4651 51.6614 75.3817 45.8446 81.692 40.4739C111.301 15.2586 149.553 0 192.821 0C267.054 0 330.447 44.774 355.582 107.868C363.223 127.069 367.143 147.547 367.132 168.212Z" fill="#F9A826"/>
<path d="M229.959 37.91L63.9873 57.8794C69.4646 51.6614 75.3812 45.8446 81.6915 40.4739L229.959 37.91Z" fill="#D0CDE1"/>
<path d="M352.955 223.546C349.988 228.63 346.619 233.468 342.88 238.015L200.711 220.914L352.955 223.546Z" fill="#D0CDE1"/>
<path d="M361.381 125.218L120.436 93.9662L355.581 107.868C357.84 113.538 359.776 119.33 361.381 125.218Z" fill="#D0CDE1"/>
<path d="M34.8484 44.8064C34.8484 45.2358 34.836 45.6589 34.7986 46.0759C34.6102 48.6601 33.8477 51.1698 32.5667 53.4221C31.2857 55.6744 29.5184 57.6126 27.3936 59.0955C25.2688 60.5785 22.84 61.5688 20.2841 61.9944C17.7282 62.42 15.1095 62.2702 12.6189 61.5558C10.1282 60.8414 7.82823 59.5805 5.88649 57.8648C3.94474 56.1492 2.41012 54.022 1.3944 51.6383C0.378689 49.2546 -0.0925469 46.6743 0.0150209 44.0854C0.122589 41.4965 0.806262 38.9643 2.01622 36.673C2.39084 35.955 2.81938 35.2664 3.29814 34.6132C5.38188 31.7232 8.30181 29.5416 11.6641 28.3629C15.0264 27.1842 18.6693 27.065 22.1015 28.0214C25.5337 28.9778 28.59 30.9638 30.8582 33.7115C33.1264 36.4592 34.4973 39.8364 34.7862 43.3876C34.8297 43.8543 34.8484 44.3272 34.8484 44.8064Z" fill="#F9A826"/>
<path d="M34.8482 44.8065C34.8482 45.2358 34.8358 45.659 34.7984 46.0759L8.71191 42.9396L34.786 43.3876C34.8295 43.8543 34.8482 44.3273 34.8482 44.8065Z" fill="#D0CDE1"/>
<path d="M28.6251 53.5869L4.49262 56.493C3.8076 55.7294 3.19122 54.9068 2.65063 54.035L28.6251 53.5869Z" fill="#D0CDE1"/>
<path d="M21.7804 34.2959L2.01636 36.6731C2.39098 35.955 2.81951 35.2665 3.29828 34.6133L21.7804 34.2959Z" fill="#D0CDE1"/>
<path d="M273.643 358.52C273.442 358.9 273.233 359.268 273.004 359.618C271.626 361.813 269.776 363.672 267.589 365.061C265.402 366.45 262.932 367.334 260.36 367.648C257.788 367.962 255.178 367.698 252.721 366.876C250.264 366.053 248.021 364.693 246.156 362.895C244.291 361.096 242.85 358.904 241.939 356.479C241.028 354.053 240.67 351.454 240.89 348.873C241.11 346.291 241.904 343.791 243.212 341.555C244.521 339.318 246.312 337.402 248.455 335.945C249.122 335.487 249.824 335.079 250.553 334.727C253.748 333.151 257.35 332.592 260.872 333.127C264.395 333.662 267.669 335.265 270.252 337.719C272.835 340.172 274.604 343.359 275.32 346.85C276.035 350.34 275.663 353.966 274.253 357.238C274.073 357.671 273.868 358.097 273.643 358.52Z" fill="#F9A826"/>
<path d="M273.643 358.52C273.442 358.9 273.232 359.267 273.004 359.618L251.432 344.619L274.253 357.238C274.073 357.67 273.868 358.097 273.643 358.52Z" fill="#D0CDE1"/>
<path d="M264.03 363.359L241.351 354.613C241.104 353.618 240.945 352.602 240.876 351.579L264.03 363.359Z" fill="#D0CDE1"/>
<path d="M267.027 343.11L248.454 335.945C249.122 335.486 249.823 335.079 250.552 334.726L267.027 343.11Z" fill="#D0CDE1"/>
<path d="M397.052 58.1548C397.351 58.4622 397.638 58.7738 397.902 59.0984C399.572 61.08 400.778 63.4091 401.433 65.9159C402.089 68.4228 402.177 71.0442 401.691 73.5894C401.206 76.1346 400.158 78.5394 398.626 80.6286C397.093 82.7178 395.114 84.4389 392.832 85.6665C390.55 86.894 388.023 87.5972 385.435 87.7246C382.847 87.8521 380.263 87.4007 377.872 86.4034C375.48 85.4061 373.341 83.8878 371.611 81.9593C369.88 80.0309 368.602 77.7406 367.868 75.2555C367.635 74.4799 367.461 73.6878 367.348 72.8859C366.822 69.362 367.389 65.7615 368.973 62.5701C370.557 59.3787 373.082 56.7499 376.207 55.0383C379.332 53.3266 382.906 52.6145 386.448 52.9979C389.991 53.3813 393.33 54.8418 396.016 57.1825C396.373 57.4862 396.717 57.8118 397.052 58.1548Z" fill="#F9A826"/>
<path d="M397.051 58.1548C397.351 58.4622 397.637 58.7738 397.902 59.0984L377.036 75.0667L396.016 57.1825C396.373 57.4862 396.716 57.8118 397.051 58.1548Z" fill="#D0CDE1"/>
<path d="M398.727 68.7858L383.479 87.7156C382.456 87.6472 381.44 87.4887 380.444 87.2419L398.727 68.7858Z" fill="#D0CDE1"/>
<path d="M380.358 59.7545L367.868 75.2556C367.635 74.48 367.461 73.6878 367.348 72.8859L380.358 59.7545Z" fill="#D0CDE1"/>
<path d="M53.1126 201.113L52.8236 201.075L53.5286 203.755C54.195 207.494 55.1627 211.172 56.4223 214.755L77.0988 293.356C77.7588 295.864 79.1367 298.126 81.0636 299.862C82.9904 301.599 85.3824 302.735 87.9459 303.132L130.112 309.655C132.839 310.077 135.629 309.642 138.098 308.41C140.566 307.178 142.591 305.21 143.894 302.778L183.965 227.931C185.218 225.857 186.362 223.72 187.393 221.528L188.754 218.987L188.542 218.959C192.789 208.91 194.659 198.016 194.005 187.127C193.351 176.237 190.191 165.645 184.771 156.177C179.351 146.709 171.818 138.62 162.758 132.542C153.699 126.464 143.358 122.56 132.542 121.135C121.726 119.709 110.727 120.801 100.402 124.325C90.0771 127.849 80.7057 133.71 73.018 141.451C65.3304 149.192 59.5343 158.603 56.0816 168.952C52.6289 179.301 51.6128 190.307 53.1126 201.113H53.1126Z" fill="#3F3D56"/>
<path d="M132.701 314.79C131.958 314.79 131.216 314.733 130.483 314.62L86.407 307.801C83.6075 307.368 80.9953 306.127 78.8911 304.231C76.7869 302.334 75.2824 299.865 74.5622 297.125L52.9497 214.966C51.6288 211.205 50.6137 207.343 49.9142 203.419L49.3676 199.824C47.897 188.342 49.1156 176.675 52.9272 165.744C56.7388 154.813 63.039 144.918 71.3305 136.839C79.6221 128.761 89.6779 122.72 100.704 119.194C111.731 115.668 123.426 114.753 134.866 116.522L134.675 117.752C123.359 116.009 111.793 116.933 100.898 120.453C90.0027 123.973 80.0812 129.99 71.9245 138.025C63.7678 146.06 57.6017 155.889 53.9181 166.73C50.2345 177.571 49.1354 189.122 50.7084 200.463L51.1287 203.151C51.8229 207.043 52.8295 210.872 54.1386 214.602L75.7661 296.808C76.4245 299.314 77.8002 301.572 79.7244 303.306C81.6485 305.041 84.0373 306.175 86.5972 306.571L130.673 313.39C133.395 313.808 136.18 313.372 138.645 312.142C141.109 310.912 143.132 308.949 144.434 306.522L145.532 307.109C144.286 309.429 142.436 311.368 140.177 312.721C137.917 314.073 135.334 314.789 132.701 314.79Z" fill="#D0CDE1"/>
<path d="M143.881 218.979L117.062 292.204L118.574 292.758L145.392 219.533L143.881 218.979Z" fill="#D0CDE1"/>
<path d="M100.092 212.204L98.4839 212.274L101.907 290.181L103.515 290.11L100.092 212.204Z" fill="#D0CDE1"/>
<path d="M128.974 352.038L72.4961 343.301C72.0762 343.233 71.7 343.002 71.4497 342.658C71.1995 342.314 71.0955 341.885 71.1605 341.465C71.2256 341.045 71.4543 340.667 71.7968 340.415C72.1392 340.163 72.5676 340.056 72.9883 340.119L129.466 348.856C129.676 348.887 129.878 348.96 130.059 349.069C130.241 349.178 130.4 349.323 130.525 349.494C130.651 349.664 130.742 349.859 130.793 350.065C130.843 350.271 130.853 350.485 130.82 350.694C130.788 350.904 130.714 351.105 130.604 351.287C130.493 351.468 130.348 351.625 130.176 351.75C130.005 351.875 129.81 351.965 129.604 352.014C129.397 352.063 129.183 352.071 128.974 352.038Z" fill="#3F3D56"/>
<path d="M130.423 340.044L73.945 331.307C73.7351 331.276 73.5335 331.203 73.3517 331.094C73.1699 330.985 73.0115 330.84 72.8857 330.669C72.7598 330.499 72.669 330.305 72.6184 330.098C72.5678 329.892 72.5585 329.678 72.591 329.469C72.6234 329.259 72.697 329.058 72.8074 328.876C72.9179 328.695 73.0632 328.538 73.2347 328.413C73.4063 328.288 73.6009 328.198 73.8073 328.149C74.0137 328.1 74.2277 328.092 74.4372 328.125L130.915 336.863C131.125 336.894 131.326 336.966 131.508 337.076C131.69 337.185 131.848 337.329 131.974 337.5C132.1 337.671 132.191 337.865 132.242 338.071C132.292 338.277 132.301 338.491 132.269 338.701C132.237 338.911 132.163 339.112 132.052 339.293C131.942 339.474 131.797 339.632 131.625 339.757C131.454 339.881 131.259 339.971 131.053 340.021C130.846 340.07 130.632 340.078 130.423 340.044Z" fill="#3F3D56"/>
<path d="M131.87 328.051L75.3926 319.314C74.9727 319.246 74.5965 319.015 74.3462 318.671C74.096 318.328 73.992 317.899 74.057 317.478C74.122 317.058 74.3508 316.68 74.6933 316.428C75.0358 316.176 75.4641 316.069 75.8849 316.132L132.363 324.869C132.782 324.937 133.159 325.168 133.409 325.511C133.659 325.855 133.763 326.284 133.698 326.705C133.633 327.125 133.404 327.503 133.062 327.755C132.719 328.007 132.291 328.114 131.87 328.051H131.87Z" fill="#3F3D56"/>
<path d="M98.98 359.017C110.183 360.75 120.23 355.911 121.422 348.21L80.8531 341.934C79.6616 349.635 87.7774 357.284 98.98 359.017Z" fill="#3F3D56"/>
<path d="M119.281 203.552C116.871 203.179 114.878 201.274 113.784 199.998C113.426 199.579 113.077 199.145 112.727 198.71C111.454 197.125 110.253 195.629 108.579 194.849C104.884 193.125 100.531 195.533 96.7624 198.116L95.8518 196.788C99.9955 193.947 104.828 191.323 109.26 193.389C111.273 194.328 112.65 196.043 113.982 197.701C114.321 198.124 114.66 198.545 115.007 198.951C116.144 200.278 118.41 202.429 120.839 201.933C121.863 201.634 122.814 201.13 123.637 200.452C124.263 199.984 124.925 199.567 125.616 199.203C127.019 198.53 128.588 198.287 130.128 198.505C131.668 198.723 133.109 199.391 134.27 200.426C134.684 200.818 135.076 201.232 135.445 201.668C136.169 202.493 136.853 203.272 137.743 203.555C139.058 203.976 140.449 203.224 141.922 202.429C143.442 201.609 145.013 200.761 146.795 200.97C146.853 200.977 146.911 200.985 146.969 200.994C150.14 201.485 151.602 204.991 152.429 207.609L150.893 208.093C149.769 204.536 148.401 202.767 146.606 202.569C145.33 202.419 144.046 203.112 142.687 203.846C140.984 204.766 139.22 205.717 137.254 205.089C135.938 204.671 135.072 203.684 134.235 202.73C133.905 202.339 133.554 201.966 133.184 201.614C132.259 200.804 131.119 200.281 129.902 200.109C128.685 199.937 127.444 200.123 126.331 200.645C125.715 200.973 125.125 201.347 124.566 201.766C123.567 202.581 122.407 203.175 121.162 203.51C120.543 203.636 119.906 203.65 119.281 203.552Z" fill="#D0CDE1"/>
</svg>