<svg width="121" height="121" viewBox="0 0 121 121" fill="none" xmlns="http://www.w3.org/2000/svg">
<path d="M60.4976 42.5L71.1658 67.94L98.8546 70.14L77.7603 88.06L84.2035 114.86L60.4976 100.5L36.7917 114.86L43.235 88.06L22.1406 70.14L49.8295 67.94L60.4976 42.5ZM60.4976 68.535L56.7718 77.42L47.112 78.185L54.4728 84.44L52.2192 93.795L60.4976 88.78L68.771 93.795L66.5224 84.445L73.8782 78.185L64.2234 77.42L60.4976 68.535ZM40.331 10V55H30.2476V10H40.331ZM90.7476 10V55H80.6643V10H90.7476ZM65.5393 10V35H55.456V10H65.5393Z" fill="#828282"/>
</svg>