<svg width="788" height="429" viewBox="0 0 788 429" fill="none" xmlns="http://www.w3.org/2000/svg">
<g clip-path="url(#clip0)">
<path d="M178.179 372.278C178.028 389.492 176.767 406.68 174.404 423.732C174.322 424.331 174.232 424.93 174.148 425.529L12.9315 424.628C12.4581 424.033 11.9922 423.431 11.5408 422.822C10.0357 420.807 8.62499 418.734 7.32999 416.589C1.10563 406.258 -1.74395 394.162 1.11161 385.816L1.16274 385.686C1.77914 383.859 2.75046 382.171 4.02092 380.72C10.5315 373.391 23.6953 374.613 35.6411 380.528C24.9265 368.8 16.3949 354.001 15.7466 340.79C15.111 327.905 21.8486 318.701 29.1563 310.878C29.3961 310.62 29.6358 310.368 29.8755 310.117C29.9919 309.987 30.1153 309.865 30.2313 309.736C35.9328 303.775 42.5799 297.898 52.2011 298.609C62.753 299.39 74.4519 308.229 82.6547 318.528C90.8576 328.82 96.3086 340.511 101.834 351.922C107.366 363.325 113.351 375.02 122.229 384.767C110.205 369.558 100.51 352.254 96.9293 335.424C93.3482 318.595 96.4998 302.431 107.216 294.505C110.469 292.173 114.234 290.654 118.195 290.075C118.657 289.998 119.127 289.936 119.604 289.88C129.524 288.752 141.368 292.183 151.446 300.384C162.544 309.414 170.238 322.801 174.067 335.509C177.895 348.217 178.303 360.451 178.179 372.278Z" fill="#F2F2F2"/>
<path d="M72.7018 424.962L69.619 424.945C68.6402 424.333 67.6567 423.728 66.6686 423.13C66.0569 422.744 65.4381 422.372 64.819 421.994C54.5934 415.748 44.3039 409.758 33.9504 404.022C23.6064 398.282 13.2103 392.806 2.76224 387.594C2.4853 387.474 2.25935 387.26 2.12366 386.99C1.98798 386.72 1.95112 386.411 2.01952 386.117C2.03072 386.079 2.04807 386.042 2.0709 386.009C2.21663 385.736 2.54233 385.622 3.01769 385.856C4.29922 386.498 5.58815 387.141 6.86959 387.798C17.3462 393.098 27.7779 398.664 38.1645 404.493C48.5441 410.321 58.8644 416.405 69.1257 422.747C69.3414 422.878 69.5575 423.016 69.7732 423.148C70.7518 423.752 71.7233 424.357 72.7018 424.962Z" fill="white"/>
<path d="M112.45 425.184L110.544 425.173C110.114 424.572 109.692 423.97 109.262 423.368C99.1599 409.203 89.0604 395.037 78.963 380.872C62.4273 357.68 45.8965 334.489 29.3707 311.298C29.2728 311.173 29.1999 311.031 29.1563 310.878C29.0149 310.365 29.3921 310.064 29.8755 310.117C30.0793 310.146 30.2746 310.218 30.4483 310.329C30.622 310.439 30.7701 310.586 30.8828 310.758C40.1535 323.764 49.422 336.764 58.6881 349.76C75.1377 372.835 91.585 395.908 108.03 418.978C109.076 420.443 110.122 421.914 111.168 423.379C111.598 423.981 112.028 424.582 112.45 425.184Z" fill="white"/>
<path d="M154.919 414.114C154.822 417.326 154.609 420.488 154.331 423.62C154.277 424.219 154.224 424.818 154.17 425.417L152.17 425.406C152.231 424.807 152.292 424.208 152.346 423.609C152.768 419.084 153.068 414.508 153.109 409.807C153.162 396.776 151.892 383.772 149.318 370.997C146.583 357.242 142.655 343.75 137.579 330.676C132.251 316.887 125.828 303.547 118.371 290.783C118.231 290.575 118.168 290.324 118.195 290.075C118.277 289.505 119.036 289.336 119.604 289.88C119.716 289.987 119.812 290.109 119.89 290.243C120.813 291.83 121.719 293.421 122.608 295.017C129.79 307.851 135.937 321.238 140.992 335.049C145.806 348.166 149.468 361.678 151.936 375.431C154.248 388.189 155.248 401.151 154.919 414.114Z" fill="white"/>
<path d="M713.398 331.61C713.398 323.878 684.297 317.61 648.398 317.61C612.5 317.61 583.398 323.878 583.398 331.61C583.398 336.566 595.363 340.917 613.398 343.405V420.11C613.398 421.834 614.083 423.488 615.302 424.707C616.521 425.926 618.174 426.61 619.898 426.61C621.622 426.61 623.275 425.926 624.494 424.707C625.713 423.488 626.398 421.834 626.398 420.11V344.786C633.27 345.319 640.675 345.61 648.398 345.61C656.121 345.61 663.526 345.319 670.398 344.786V420.11C670.398 421.834 671.083 423.488 672.302 424.707C673.521 425.926 675.174 426.61 676.898 426.61C678.622 426.61 680.275 425.926 681.494 424.707C682.713 423.488 683.398 421.834 683.398 420.11V343.405C701.434 340.917 713.398 336.566 713.398 331.61Z" fill="#CCCCCC"/>
<path d="M655.586 203.468C671.05 203.468 683.586 190.932 683.586 175.468C683.586 160.004 671.05 147.468 655.586 147.468C640.122 147.468 627.586 160.004 627.586 175.468C627.586 190.932 640.122 203.468 655.586 203.468Z" fill="#2F2E41"/>
<path d="M585.905 415.034H573.645L567.813 367.746H585.907L585.905 415.034Z" fill="#A0616A"/>
<path d="M564.888 411.531H588.532V426.418H550.001C550.001 424.463 550.387 422.527 551.135 420.721C551.883 418.914 552.979 417.273 554.362 415.891C555.744 414.509 557.385 413.412 559.191 412.664C560.998 411.916 562.933 411.531 564.888 411.531Z" fill="#2F2E41"/>
<path d="M566.768 408.192L555.07 404.521L563.662 357.656L580.926 363.073L566.768 408.192Z" fill="#A0616A"/>
<path d="M547.764 398.557L570.323 405.636L565.865 419.84L529.102 408.303C529.688 406.438 530.635 404.706 531.889 403.207C533.144 401.708 534.682 400.47 536.415 399.565C538.147 398.66 540.042 398.105 541.989 397.932C543.936 397.759 545.898 397.971 547.764 398.557Z" fill="#2F2E41"/>
<path d="M570.756 389.324C570.219 389.324 569.687 389.227 569.184 389.038L560.165 385.656C559.152 385.273 558.311 384.539 557.795 383.587C557.278 382.636 557.121 381.531 557.351 380.473C559.622 370.263 567.361 335.502 571.598 316.857C576.624 294.742 649.941 290.633 653.059 290.469L653.316 290.455L661.563 300.819C664.543 310.399 663.599 317.87 658.756 323.027C644.623 338.074 602.428 328.737 597.397 327.556L574.97 386.427C574.643 387.279 574.065 388.013 573.313 388.53C572.561 389.047 571.669 389.324 570.756 389.324Z" fill="#2F2E41"/>
<path d="M583.756 396.324C583.219 396.324 582.687 396.227 582.184 396.038L573.165 392.656C572.152 392.273 571.311 391.539 570.795 390.587C570.278 389.636 570.121 388.531 570.351 387.473C572.622 377.263 580.361 342.502 584.598 323.857C589.624 301.742 662.941 297.633 666.059 297.469L666.316 297.455L674.563 307.819C677.543 317.399 676.599 324.87 671.756 330.027C657.623 345.073 615.428 335.737 610.397 334.556L587.97 393.427C587.643 394.279 587.065 395.013 586.313 395.53C585.561 396.047 584.669 396.324 583.756 396.324Z" fill="#2F2E41"/>
<path d="M557.661 252.304C557.993 252.747 558.289 253.216 558.546 253.706L607.866 258.902L614.966 249.168L631.057 257.963L617.112 281.584L556.625 266.161C555.099 267.649 553.156 268.637 551.055 268.994C548.954 269.351 546.794 269.059 544.862 268.158C542.93 267.257 541.319 265.79 540.242 263.951C539.164 262.112 538.673 259.989 538.831 257.863C538.99 255.738 539.793 253.711 541.131 252.053C542.47 250.395 544.282 249.183 546.326 248.58C548.37 247.976 550.55 248.009 552.574 248.675C554.599 249.34 556.373 250.606 557.661 252.304L557.661 252.304Z" fill="#A0616A"/>
<path d="M672.274 311.786C671.561 311.784 670.859 311.612 670.225 311.285C660.363 306.271 641.158 297.586 623.35 295.769C622.741 295.709 622.151 295.522 621.618 295.221C621.084 294.919 620.62 294.51 620.255 294.019C619.882 293.522 619.616 292.954 619.472 292.35C619.329 291.746 619.311 291.119 619.421 290.508C621.028 281.612 624.714 258.961 624.24 240.807C624.1 235.225 625.863 229.761 629.24 225.315C632.617 220.868 637.407 217.702 642.821 216.339C646.081 215.479 649.392 214.826 652.734 214.385C656.576 213.898 660.478 214.318 664.128 215.611C667.778 216.903 671.075 219.033 673.753 221.829C676.432 224.625 678.419 228.009 679.555 231.711C680.691 235.413 680.944 239.329 680.294 243.147C677.118 261.96 673.917 288.236 676.699 306.579C676.827 307.401 676.724 308.243 676.404 309.01C676.083 309.778 675.555 310.441 674.88 310.928C674.124 311.483 673.212 311.783 672.274 311.786Z" fill="#F9A826"/>
<path d="M625.152 263.935C624.538 263.934 623.929 263.807 623.366 263.562L610.518 258C609.424 257.525 608.563 256.635 608.124 255.526C607.685 254.416 607.703 253.178 608.176 252.083L618.107 229.141C618.707 227.754 619.573 226.499 620.658 225.447C621.742 224.395 623.023 223.567 624.428 223.011C625.833 222.455 627.333 222.18 628.843 222.204C630.354 222.228 631.845 222.549 633.232 223.149C634.618 223.749 635.873 224.616 636.924 225.701C637.975 226.786 638.802 228.068 639.357 229.473C639.913 230.878 640.186 232.378 640.162 233.889C640.137 235.399 639.815 236.89 639.215 238.276L629.283 261.219C628.934 262.025 628.357 262.711 627.623 263.193C626.889 263.676 626.03 263.933 625.152 263.935V263.935Z" fill="#F9A826"/>
<path d="M654.562 206.58C668.127 206.58 679.123 195.584 679.123 182.019C679.123 168.454 668.127 157.458 654.562 157.458C640.997 157.458 630.001 168.454 630.001 182.019C630.001 195.584 640.997 206.58 654.562 206.58Z" fill="#A0616A"/>
<path d="M629.559 169.952C641.193 177.054 654.308 181.375 667.885 182.58L663.845 177.74C666.787 178.827 669.882 179.442 673.016 179.561C676.146 179.512 679.426 178.307 681.202 175.729C681.995 174.448 682.465 172.994 682.574 171.491C682.683 169.988 682.427 168.482 681.828 167.099C680.596 164.342 678.68 161.946 676.261 160.139C671.973 156.747 666.913 154.469 661.532 153.507C656.15 152.546 650.614 152.93 645.417 154.627C641.852 155.692 638.659 157.74 636.204 160.536C633.876 163.409 629.393 165.968 630.586 169.468L629.559 169.952Z" fill="#2F2E41"/>
<path d="M658.692 150.131C650.945 142.276 641.571 136.214 631.229 132.372C624.59 129.912 617.364 128.393 610.424 129.79C603.483 131.186 596.92 135.988 594.983 142.797C593.4 148.366 595.035 154.361 597.492 159.603C599.949 164.845 603.23 169.705 605.217 175.143C607.244 180.691 607.854 186.657 606.99 192.501C606.127 198.344 603.818 203.88 600.273 208.604C596.728 213.329 592.058 217.093 586.689 219.556C581.32 222.018 575.421 223.101 569.528 222.705C576.347 223.619 582.633 226.824 589.298 228.53C595.964 230.236 603.831 230.12 608.785 225.345C614.026 220.292 614.13 212.078 613.877 204.802C613.5 193.987 613.124 183.172 612.747 172.357C612.555 166.842 612.391 161.15 614.38 156.002C616.369 150.854 621.096 146.346 626.615 146.393C630.797 146.428 634.499 148.962 637.853 151.461C641.208 153.96 644.758 156.626 648.924 156.997C653.09 157.369 657.847 154.286 657.535 150.115" fill="#2F2E41"/>
<path d="M613.269 305.477C611.641 305.475 610.035 305.112 608.564 304.415C607.094 303.717 605.797 302.702 604.766 301.443C603.735 300.183 602.996 298.711 602.603 297.132C602.21 295.552 602.172 293.906 602.491 292.31C602.811 290.714 603.481 289.209 604.453 287.904C605.424 286.598 606.673 285.524 608.11 284.759C609.546 283.994 611.135 283.558 612.76 283.481C614.386 283.403 616.008 283.688 617.511 284.313H617.511C617.963 284.504 618.401 284.726 618.823 284.978L663.563 264.891L664.82 252.757L684.106 252.241L683.978 272.442C683.955 274.783 683.177 277.053 681.761 278.916C680.345 280.779 678.366 282.136 676.117 282.785L623.795 297.678C623.693 298.024 623.574 298.364 623.436 298.697C622.597 300.702 621.184 302.415 619.376 303.621C617.567 304.827 615.443 305.473 613.269 305.477V305.477Z" fill="#A0616A"/>
<path d="M682.473 262.144C681.924 262.421 681.325 262.583 680.711 262.62L666.737 263.479C665.546 263.551 664.376 263.147 663.482 262.357C662.588 261.567 662.045 260.455 661.97 259.264L660.436 234.312C660.341 232.803 660.544 231.29 661.034 229.86C661.523 228.429 662.29 227.11 663.291 225.976C664.291 224.843 665.505 223.918 666.864 223.254C668.222 222.59 669.698 222.201 671.207 222.108C672.716 222.015 674.228 222.221 675.657 222.713C677.087 223.205 678.405 223.975 679.537 224.977C680.669 225.979 681.592 227.195 682.253 228.554C682.915 229.914 683.302 231.39 683.392 232.899L684.926 257.852C684.979 258.728 684.775 259.601 684.34 260.364C683.904 261.126 683.255 261.745 682.473 262.144L682.473 262.144Z" fill="#F9A826"/>
<path d="M652.103 308H573.103C572.175 308 571.285 307.631 570.628 306.975C569.972 306.318 569.603 305.428 569.603 304.5C569.603 303.572 569.972 302.682 570.628 302.025C571.285 301.369 572.175 301 573.103 301H652.103C653.031 301 653.922 301.369 654.578 302.025C655.234 302.682 655.603 303.572 655.603 304.5C655.603 305.428 655.234 306.318 654.578 306.975C653.922 307.631 653.031 308 652.103 308Z" fill="#3F3D56"/>
<path d="M538.603 301.5V252.5C538.605 250.777 539.29 249.125 540.509 247.906C541.728 246.687 543.38 246.002 545.103 246H634.103C635.826 246.002 637.479 246.687 638.697 247.906C639.916 249.125 640.601 250.777 640.603 252.5V301.5C640.601 303.223 639.916 304.875 638.697 306.094C637.479 307.313 635.826 307.998 634.103 308H545.103C543.38 307.998 541.728 307.313 540.509 306.094C539.29 304.875 538.605 303.223 538.603 301.5Z" fill="#3F3D56"/>
<path d="M589.603 283C592.917 283 595.603 280.314 595.603 277C595.603 273.686 592.917 271 589.603 271C586.289 271 583.603 273.686 583.603 277C583.603 280.314 586.289 283 589.603 283Z" fill="white"/>
<path d="M276.781 219.337C275.97 218.111 274.901 217.076 273.648 216.308C272.395 215.539 270.988 215.055 269.528 214.888C268.067 214.722 266.588 214.878 265.194 215.345C263.8 215.813 262.526 216.58 261.46 217.593L229.706 201.203L231.68 219.667L261.532 232.401C263.352 234.078 265.725 235.028 268.199 235.073C270.674 235.117 273.079 234.252 274.959 232.642C276.838 231.032 278.062 228.788 278.398 226.336C278.734 223.884 278.158 221.393 276.781 219.337H276.781Z" fill="#FFB8B8"/>
<path d="M248.56 226.769C247.986 227.033 247.362 227.173 246.73 227.179C246.098 227.186 245.472 227.06 244.891 226.808L214.729 213.724C204.416 209.252 196.078 201.186 191.267 191.027L175.41 157.556C174.24 156.052 173.378 154.333 172.872 152.496C172.367 150.659 172.229 148.74 172.466 146.85C172.702 144.959 173.309 143.134 174.252 141.479C175.195 139.823 176.455 138.369 177.96 137.201C179.464 136.033 181.185 135.172 183.022 134.669C184.86 134.166 186.779 134.03 188.669 134.269C190.559 134.508 192.384 135.118 194.038 136.062C195.692 137.007 197.145 138.269 198.311 139.775L226.184 191.489L251.921 210.93C252.657 211.489 253.204 212.261 253.488 213.141C253.772 214.021 253.779 214.967 253.507 215.851L250.981 224.011C250.71 224.886 250.178 225.657 249.457 226.222C249.181 226.439 248.88 226.623 248.56 226.769Z" fill="#CCCCCC"/>
<path d="M174.713 118.192C188.277 118.192 199.274 107.196 199.274 93.631C199.274 80.0663 188.277 69.0699 174.713 69.0699C161.148 69.0699 150.151 80.0663 150.151 93.631C150.151 107.196 161.148 118.192 174.713 118.192Z" fill="#FFB8B8"/>
<path d="M184.661 415.827H196.92L202.753 368.539H184.658L184.661 415.827Z" fill="#FFB8B8"/>
<path d="M220.565 427.21L182.034 427.211L182.033 412.325L205.677 412.323C209.625 412.323 213.412 413.892 216.204 416.683C218.996 419.475 220.565 423.261 220.565 427.21L220.565 427.21Z" fill="#2F2E41"/>
<path d="M144.661 415.827H156.92L162.753 368.539H144.658L144.661 415.827Z" fill="#FFB8B8"/>
<path d="M180.565 427.21L142.034 427.211L142.033 412.325L165.677 412.323C169.625 412.323 173.412 413.892 176.204 416.683C178.996 419.475 180.565 423.261 180.565 427.21L180.565 427.21Z" fill="#2F2E41"/>
<path d="M140.38 402.292C139.957 401.809 139.643 401.242 139.458 400.629C139.272 400.015 139.22 399.369 139.305 398.733L160.769 237.748L214.098 246.804L219.789 243.389L205.072 396.133C204.95 397.165 204.475 398.122 203.729 398.844C202.983 399.566 202.01 400.009 200.976 400.097L184.828 401.443C184.186 401.497 183.54 401.412 182.934 401.194C182.327 400.977 181.775 400.631 181.313 400.182C180.852 399.732 180.493 399.189 180.259 398.588C180.026 397.988 179.925 397.344 179.962 396.701L184.142 323.959C184.15 323.835 184.111 323.713 184.034 323.616C183.956 323.52 183.846 323.455 183.724 323.435C183.601 323.415 183.476 323.441 183.372 323.509C183.268 323.576 183.193 323.679 183.16 323.798L162.477 400.499C162.219 401.453 161.653 402.296 160.868 402.898C160.083 403.5 159.122 403.826 158.133 403.828H143.766C143.124 403.828 142.49 403.691 141.907 403.426C141.323 403.161 140.802 402.774 140.38 402.292Z" fill="#2F2E41"/>
<path d="M177.312 249.016C176.7 248.462 175.913 248.14 175.088 248.105C174.263 248.071 173.452 248.327 172.796 248.828L162.134 257.121C161.554 257.573 160.872 257.877 160.147 258.004C159.422 258.131 158.677 258.079 157.977 257.851C157.278 257.623 156.645 257.227 156.134 256.698C155.623 256.168 155.249 255.522 155.047 254.814C149.817 236.499 137.968 190.396 140.887 157.948C142.542 139.555 158.424 125.577 176.292 126.75C188.508 127.564 196.544 134.611 200.178 147.694C209.101 179.816 218.907 238.738 220.782 250.224C220.93 251.115 220.805 252.031 220.424 252.849C220.042 253.668 219.422 254.353 218.645 254.813C213.601 257.842 207.837 259.464 201.953 259.51C194.834 259.51 186.298 257.032 177.312 249.016Z" fill="#CCCCCC"/>
<path d="M181.335 260.443C181.455 258.978 181.251 257.504 180.739 256.126C180.228 254.748 179.42 253.499 178.373 252.466C177.327 251.434 176.066 250.644 174.681 250.151C173.296 249.659 171.82 249.476 170.356 249.616L155.484 217.123L145.643 232.87L161.274 261.312C161.672 263.755 162.952 265.967 164.872 267.529C166.792 269.091 169.218 269.895 171.691 269.788C174.163 269.681 176.511 268.67 178.289 266.948C180.066 265.226 181.15 262.911 181.335 260.443H181.335Z" fill="#FFB8B8"/>
<path d="M154.543 248.876C153.928 248.728 153.351 248.454 152.85 248.069C152.348 247.684 151.933 247.198 151.632 246.642L135.973 217.733C130.617 207.85 129.034 196.357 131.518 185.394L139.697 149.271C139.704 147.366 140.087 145.482 140.823 143.725C141.559 141.968 142.635 140.373 143.988 139.032C145.341 137.691 146.944 136.63 148.708 135.909C150.471 135.188 152.359 134.822 154.264 134.831C156.169 134.841 158.053 135.225 159.809 135.963C161.565 136.701 163.159 137.778 164.499 139.132C165.838 140.487 166.898 142.092 167.617 143.855C168.336 145.619 168.701 147.508 168.689 149.413L158.708 207.305L166.962 238.486C167.196 239.381 167.151 240.326 166.831 241.193C166.511 242.061 165.932 242.809 165.173 243.338L158.15 248.199C157.397 248.72 156.502 248.999 155.586 248.999C155.235 248.999 154.885 248.958 154.543 248.876Z" fill="#CCCCCC"/>
<path opacity="0.2" d="M166.697 173.828L157.697 211.828L170.697 243.828L161.697 212.828L166.697 173.828Z" fill="black"/>
<path d="M160.697 113.828C158.512 113.868 156.341 113.476 154.309 112.672C153.415 112.327 152.487 112.044 151.594 111.699C143.712 108.654 138.52 100.26 138.334 91.813C138.148 83.3655 142.523 75.1665 149.019 69.7632C155.515 64.3598 163.929 61.5857 172.354 60.9442C181.429 60.2532 191.648 62.5546 196.719 70.1124C198.069 72.1242 199.013 74.565 198.213 76.994C197.974 77.727 197.546 78.3842 196.973 78.8999C194.708 80.9148 192.45 79.3998 190.141 79.2659C186.968 79.0819 184.118 81.6505 183.094 84.6595C182.069 87.6685 182.52 90.9811 183.347 94.0502C183.977 95.8969 184.375 97.8151 184.53 99.7603C184.597 100.736 184.413 101.712 183.997 102.596C183.581 103.481 182.945 104.245 182.151 104.815C180.168 106.014 177.564 105.32 175.58 104.123C173.596 102.927 171.882 101.263 169.739 100.382C167.596 99.5016 164.716 99.6969 163.469 101.649C163.072 102.36 162.804 103.135 162.676 103.938C161.558 109.033 161.815 108.733 160.697 113.828L160.697 113.828Z" fill="#2F2E41"/>
<path d="M373.648 197.178C373.241 196.663 372.956 196.061 372.816 195.419C372.676 194.777 372.685 194.112 372.841 193.473C376.57 177.851 376.57 161.57 372.841 145.948C372.685 145.31 372.676 144.644 372.816 144.002C372.956 143.36 373.241 142.758 373.648 142.243C374.047 141.735 374.557 141.324 375.138 141.042C375.719 140.761 376.357 140.615 377.003 140.617H416.876C417.895 140.619 418.88 140.983 419.656 141.643C420.432 142.303 420.948 143.218 421.113 144.223C423.714 161.115 423.714 178.306 421.113 195.198C420.948 196.204 420.432 197.118 419.656 197.778C418.88 198.439 417.895 198.802 416.876 198.804H377.003C376.357 198.806 375.719 198.661 375.138 198.379C374.557 198.097 374.047 197.687 373.648 197.178Z" fill="#E6E6E6"/>
<path d="M311.967 56.5605C311.559 56.0451 311.275 55.4435 311.135 54.8016C310.995 54.1596 311.004 53.4942 311.16 52.856C314.889 37.2338 314.889 20.953 311.16 5.33082C311.004 4.69261 310.995 4.0272 311.135 3.38523C311.275 2.74326 311.559 2.14167 311.967 1.62626C312.366 1.11779 312.875 0.707024 313.457 0.425208C314.038 0.143391 314.676 -0.00202827 315.322 2.13694e-05H355.195C356.214 0.00207482 357.199 0.365587 357.975 1.02587C358.75 1.68615 359.267 2.60035 359.432 3.60572C362.033 20.498 362.033 37.6888 359.432 54.5811C359.267 55.5864 358.75 56.5006 357.975 57.1609C357.199 57.8212 356.214 58.1847 355.195 58.1868H315.322C314.676 58.1888 314.038 58.0434 313.457 57.7616C312.875 57.4798 312.366 57.069 311.967 56.5605Z" fill="#E6E6E6"/>
<path d="M410.079 103.598C407.478 86.7062 407.478 69.5153 410.079 52.6231C410.244 51.6177 410.76 50.7034 411.536 50.0431C412.312 49.3828 413.297 49.0193 414.316 49.0174H454.188C454.834 49.0153 455.472 49.1607 456.054 49.4425C456.635 49.7243 457.145 50.1351 457.543 50.6436C457.951 51.159 458.235 51.7606 458.375 52.4025C458.515 53.0445 458.507 53.7099 458.351 54.3482C454.621 69.9703 454.621 86.2511 458.351 101.873C458.507 102.512 458.515 103.177 458.375 103.819C458.235 104.461 457.951 105.062 457.543 105.578C457.145 106.086 456.635 106.497 456.054 106.779C455.472 107.061 454.834 107.206 454.188 107.204H414.316C413.297 107.202 412.312 106.839 411.536 106.178C410.76 105.518 410.244 104.604 410.079 103.598Z" fill="#F9A826"/>
<path d="M243.156 101.819C240.555 84.9262 240.555 67.7354 243.156 50.8431C243.321 49.8378 243.837 48.9236 244.613 48.2633C245.389 47.603 246.374 47.2395 247.393 47.2374H287.265C287.912 47.2354 288.55 47.3808 289.131 47.6626C289.712 47.9444 290.222 48.3552 290.621 48.8637C291.028 49.3791 291.313 49.9807 291.453 50.6226C291.592 51.2646 291.584 51.93 291.428 52.5683C287.698 68.1904 287.698 84.4712 291.428 100.093C291.584 100.732 291.592 101.397 291.453 102.039C291.313 102.681 291.028 103.283 290.621 103.798C290.222 104.306 289.712 104.717 289.131 104.999C288.55 105.281 287.912 105.426 287.265 105.424H247.393C246.374 105.422 245.389 105.059 244.613 104.398C243.837 103.738 243.321 102.824 243.156 101.819Z" fill="#FF6584"/>
<path d="M253.018 219.49C252.604 218.966 252.314 218.355 252.172 217.702C252.03 217.05 252.038 216.373 252.197 215.724C255.988 199.845 255.988 183.297 252.197 167.418C252.038 166.77 252.03 166.093 252.172 165.44C252.314 164.788 252.604 164.176 253.018 163.652C253.423 163.136 253.941 162.718 254.532 162.432C255.123 162.146 255.771 161.998 256.428 162H296.955C297.991 162.002 298.992 162.371 299.781 163.043C300.57 163.714 301.095 164.643 301.262 165.665C303.906 182.835 303.906 200.308 301.262 217.478C301.095 218.5 300.57 219.429 299.781 220.1C298.992 220.771 297.991 221.141 296.955 221.143H256.428C255.771 221.145 255.123 220.997 254.532 220.711C253.941 220.424 253.423 220.007 253.018 219.49Z" fill="#F9A826"/>
<path d="M12.582 428.128H785.876C786.192 428.128 786.495 428.002 786.718 427.779C786.941 427.556 787.067 427.253 787.067 426.937C787.067 426.621 786.941 426.318 786.718 426.095C786.495 425.872 786.192 425.746 785.876 425.746H12.582C12.4253 425.746 12.2701 425.776 12.1252 425.836C11.9804 425.896 11.8487 425.983 11.7378 426.094C11.6269 426.204 11.5388 426.336 11.4788 426.481C11.4187 426.625 11.3878 426.78 11.3878 426.937C11.3878 427.094 11.4187 427.249 11.4788 427.393C11.5388 427.538 11.6269 427.67 11.7378 427.78C11.8487 427.891 11.9804 427.978 12.1252 428.038C12.2701 428.098 12.4253 428.128 12.582 428.128Z" fill="#3F3D56"/>
<path d="M289.135 183.822H267.785C266.99 183.821 266.227 183.505 265.665 182.942C265.103 182.38 264.786 181.617 264.785 180.822V179.548C264.786 178.752 265.103 177.99 265.665 177.427C266.227 176.865 266.99 176.549 267.785 176.548H289.135C289.93 176.549 290.693 176.865 291.255 177.427C291.818 177.99 292.134 178.752 292.135 179.548V180.822C292.134 181.617 291.818 182.38 291.255 182.942C290.693 183.505 289.93 183.821 289.135 183.822Z" fill="white"/>
<path d="M289.135 196.369H267.785C266.99 196.368 266.227 196.052 265.665 195.49C265.103 194.927 264.786 194.165 264.785 193.369V192.095C264.786 191.3 265.103 190.537 265.665 189.975C266.227 189.412 266.99 189.096 267.785 189.095H289.135C289.93 189.096 290.693 189.412 291.255 189.975C291.818 190.537 292.134 191.3 292.135 192.095V193.369C292.134 194.165 291.818 194.927 291.255 195.49C290.693 196.052 289.93 196.368 289.135 196.369Z" fill="white"/>
<path d="M274.995 71.9141H254.072C253.276 71.9132 252.514 71.5968 251.951 71.0344C251.389 70.472 251.073 69.7094 251.072 68.9141V67.7422C251.073 66.9468 251.389 66.1842 251.951 65.6218C252.514 65.0594 253.276 64.7431 254.072 64.7422H274.995C275.791 64.7431 276.553 65.0594 277.116 65.6218C277.678 66.1842 277.995 66.9468 277.995 67.7422V68.9141C277.995 69.7094 277.678 70.472 277.116 71.0344C276.553 71.5968 275.791 71.9132 274.995 71.9141Z" fill="white"/>
<path d="M408.675 160.043H387.751C386.956 160.043 386.194 159.726 385.631 159.164C385.069 158.601 384.752 157.839 384.751 157.043V155.871C384.752 155.076 385.069 154.313 385.631 153.751C386.194 153.188 386.956 152.872 387.751 152.871H408.675C409.47 152.872 410.233 153.188 410.795 153.751C411.358 154.313 411.674 155.076 411.675 155.871V157.043C411.674 157.839 411.358 158.601 410.795 159.164C410.233 159.726 409.47 160.043 408.675 160.043Z" fill="white"/>
<path d="M408.675 174.857H387.751C386.956 174.856 386.194 174.54 385.631 173.977C385.069 173.415 384.752 172.652 384.751 171.857V170.685C384.752 169.889 385.069 169.127 385.631 168.564C386.194 168.002 386.956 167.685 387.751 167.685H408.675C409.47 167.685 410.233 168.002 410.795 168.564C411.358 169.127 411.674 169.889 411.675 170.685V171.857C411.674 172.652 411.358 173.415 410.795 173.977C410.233 174.54 409.47 174.856 408.675 174.857Z" fill="white"/>
<path d="M408.675 189.67H387.751C386.956 189.67 386.194 189.353 385.631 188.791C385.069 188.228 384.752 187.466 384.751 186.67V185.498C384.752 184.703 385.069 183.94 385.631 183.378C386.194 182.815 386.956 182.499 387.751 182.498H408.675C409.47 182.499 410.233 182.815 410.795 183.378C411.358 183.94 411.674 184.703 411.675 185.498V186.67C411.674 187.466 411.358 188.228 410.795 188.791C410.233 189.353 409.47 189.67 408.675 189.67Z" fill="white"/>
<path d="M274.995 84.2588H254.072C253.276 84.2579 252.514 83.9416 251.951 83.3792C251.389 82.8167 251.073 82.0542 251.072 81.2588V80.0864C251.073 79.291 251.389 78.5285 251.951 77.9661C252.514 77.4036 253.276 77.0873 254.072 77.0864H274.995C275.791 77.0873 276.553 77.4036 277.116 77.9661C277.678 78.5285 277.995 79.291 277.995 80.0864V81.2588C277.995 82.0542 277.678 82.8167 277.116 83.3792C276.553 83.9416 275.791 84.2579 274.995 84.2588Z" fill="white"/>
<path d="M347.172 21.895H326.249C325.454 21.8942 324.691 21.5778 324.129 21.0154C323.566 20.453 323.25 19.6904 323.249 18.895V17.7227C323.25 16.9273 323.566 16.1647 324.129 15.6023C324.691 15.0399 325.454 14.7235 326.249 14.7227H347.172C347.968 14.7235 348.73 15.0399 349.293 15.6023C349.855 16.1647 350.171 16.9273 350.172 17.7227V18.895C350.171 19.6904 349.855 20.453 349.293 21.0154C348.73 21.5778 347.968 21.8942 347.172 21.895Z" fill="white"/>
<path d="M442.646 74.9287H421.723C420.927 74.9278 420.165 74.6115 419.602 74.0491C419.04 73.4867 418.724 72.7241 418.723 71.9287V70.7563C418.724 69.961 419.04 69.1984 419.602 68.636C420.165 68.0736 420.927 67.7572 421.723 67.7563H442.646C443.442 67.7572 444.204 68.0736 444.767 68.636C445.329 69.1984 445.645 69.961 445.646 70.7563V71.9287C445.645 72.7241 445.329 73.4867 444.767 74.0491C444.204 74.6115 443.442 74.9278 442.646 74.9287Z" fill="white"/>
</g>
<defs>
<clipPath id="clip0">
<rect width="787.067" height="428.128" fill="white"/>
</clipPath>
</defs>
</svg>