<svg width="659" height="369" viewBox="0 0 659 369" fill="none" xmlns="http://www.w3.org/2000/svg">
<rect x="524" y="194" width="12" height="175" fill="#F39200"/>
<rect y="241" width="10" height="128" fill="#F39200"/>
<rect x="176" y="119" width="8" height="132" fill="#F39200"/>
<rect y="251" width="10" height="180" transform="rotate(-90 0 251)" fill="#F39200"/>
<rect x="176" y="124" width="10" height="180" transform="rotate(-90 176 124)" fill="#F39200"/>
<rect x="356" y="195" width="10" height="180" transform="rotate(-90 356 195)" fill="#F39200"/>
<rect x="348" y="119" width="8" height="76" fill="#F39200"/>
<path d="M204.44 62.68C204.44 65.6133 203.667 68.3333 202.12 70.84C200.627 73.2933 198.387 75.32 195.4 76.92C192.467 78.4667 188.973 79.32 184.92 79.48V85.96H179.8V79.4C174.147 78.92 169.587 77.24 166.12 74.36C162.653 71.4267 160.813 67.4533 160.6 62.44H175.16C175.48 65.64 177.027 67.6933 179.8 68.6V55.96C175.64 54.8933 172.307 53.8533 169.8 52.84C167.347 51.8267 165.187 50.2 163.32 47.96C161.453 45.72 160.52 42.6533 160.52 38.76C160.52 33.9067 162.307 30.0133 165.88 27.08C169.507 24.1467 174.147 22.4933 179.8 22.12V15.64H184.92V22.12C190.52 22.5467 194.947 24.1733 198.2 27C201.453 29.8267 203.267 33.7467 203.64 38.76H189C188.68 35.88 187.32 34.0133 184.92 33.16V45.56C189.347 46.7867 192.76 47.88 195.16 48.84C197.56 49.8 199.693 51.4 201.56 53.64C203.48 55.8267 204.44 58.84 204.44 62.68ZM175 38.12C175 39.4533 175.4 40.5733 176.2 41.48C177.053 42.3867 178.253 43.1867 179.8 43.88V32.76C178.307 33.0267 177.133 33.6133 176.28 34.52C175.427 35.3733 175 36.5733 175 38.12ZM184.92 68.84C186.52 68.5733 187.773 67.9333 188.68 66.92C189.64 65.9067 190.12 64.6533 190.12 63.16C190.12 61.7733 189.667 60.6533 188.76 59.8C187.907 58.8933 186.627 58.12 184.92 57.48V68.84ZM215.816 33.32V20.6H237.976V79H223.736V33.32H215.816ZM292.454 32.52H267.494V43.56C268.561 42.3867 270.054 41.4267 271.974 40.68C273.894 39.9333 275.974 39.56 278.214 39.56C282.214 39.56 285.521 40.4667 288.134 42.28C290.801 44.0933 292.748 46.44 293.974 49.32C295.201 52.2 295.814 55.32 295.814 58.68C295.814 64.92 294.054 69.88 290.534 73.56C287.014 77.1867 282.054 79 275.654 79C271.388 79 267.681 78.28 264.534 76.84C261.388 75.3467 258.961 73.2933 257.254 70.68C255.548 68.0667 254.614 65.0533 254.454 61.64H267.814C268.134 63.2933 268.908 64.68 270.134 65.8C271.361 66.8667 273.041 67.4 275.174 67.4C277.681 67.4 279.548 66.6 280.774 65C282.001 63.4 282.614 61.2667 282.614 58.6C282.614 55.9867 281.974 53.9867 280.694 52.6C279.414 51.2133 277.548 50.52 275.094 50.52C273.281 50.52 271.788 50.9733 270.614 51.88C269.441 52.7333 268.668 53.88 268.294 55.32H255.094V20.52H292.454V32.52ZM307.366 49C307.366 39.8267 309.126 32.6 312.646 27.32C316.219 22.04 321.952 19.4 329.846 19.4C337.739 19.4 343.446 22.04 346.966 27.32C350.539 32.6 352.326 39.8267 352.326 49C352.326 58.28 350.539 65.56 346.966 70.84C343.446 76.12 337.739 78.76 329.846 78.76C321.952 78.76 316.219 76.12 312.646 70.84C309.126 65.56 307.366 58.28 307.366 49ZM338.886 49C338.886 43.6133 338.299 39.48 337.126 36.6C335.952 33.6667 333.526 32.2 329.846 32.2C326.166 32.2 323.739 33.6667 322.566 36.6C321.392 39.48 320.806 43.6133 320.806 49C320.806 52.6267 321.019 55.64 321.446 58.04C321.872 60.3867 322.726 62.3067 324.006 63.8C325.339 65.24 327.286 65.96 329.846 65.96C332.406 65.96 334.326 65.24 335.606 63.8C336.939 62.3067 337.819 60.3867 338.246 58.04C338.672 55.64 338.886 52.6267 338.886 49Z" fill="white"/>
<path d="M259.08 159.16V152.8H270.16V182H263.04V159.16H259.08Z" fill="#E94E1B"/>
<path d="M438.56 254.52C439.467 253.8 439.88 253.467 439.8 253.52C442.413 251.36 444.467 249.587 445.96 248.2C447.48 246.813 448.76 245.36 449.8 243.84C450.84 242.32 451.36 240.84 451.36 239.4C451.36 238.307 451.107 237.453 450.6 236.84C450.093 236.227 449.333 235.92 448.32 235.92C447.307 235.92 446.507 236.307 445.92 237.08C445.36 237.827 445.08 238.893 445.08 240.28H438.48C438.533 238.013 439.013 236.12 439.92 234.6C440.853 233.08 442.067 231.96 443.56 231.24C445.08 230.52 446.76 230.16 448.6 230.16C451.773 230.16 454.16 230.973 455.76 232.6C457.387 234.227 458.2 236.347 458.2 238.96C458.2 241.813 457.227 244.467 455.28 246.92C453.333 249.347 450.853 251.72 447.84 254.04H458.64V259.6H438.56V254.52Z" fill="#E94E1B"/>
<path d="M84.04 287.04C84.1467 284.187 85.08 281.987 86.84 280.44C88.6 278.893 90.9867 278.12 94 278.12C96 278.12 97.7067 278.467 99.12 279.16C100.56 279.853 101.64 280.8 102.36 282C103.107 283.2 103.48 284.547 103.48 286.04C103.48 287.8 103.04 289.24 102.16 290.36C101.28 291.453 100.253 292.2 99.08 292.6V292.76C100.6 293.267 101.8 294.107 102.68 295.28C103.56 296.453 104 297.96 104 299.8C104 301.453 103.613 302.92 102.84 304.2C102.093 305.453 100.987 306.44 99.52 307.16C98.08 307.88 96.36 308.24 94.36 308.24C91.16 308.24 88.6 307.453 86.68 305.88C84.7867 304.307 83.7867 301.933 83.68 298.76H90.32C90.3467 299.933 90.68 300.867 91.32 301.56C91.96 302.227 92.8933 302.56 94.12 302.56C95.16 302.56 95.96 302.267 96.52 301.68C97.1067 301.067 97.4 300.267 97.4 299.28C97.4 298 96.9867 297.08 96.16 296.52C95.36 295.933 94.0667 295.64 92.28 295.64H91V290.08H92.28C93.64 290.08 94.7333 289.853 95.56 289.4C96.4133 288.92 96.84 288.08 96.84 286.88C96.84 285.92 96.5733 285.173 96.04 284.64C95.5067 284.107 94.7733 283.84 93.84 283.84C92.8267 283.84 92.0667 284.147 91.56 284.76C91.08 285.373 90.8 286.133 90.72 287.04H84.04Z" fill="#E94E1B"/>
<path d="M51.65 197.8C51.65 199.633 51.1667 201.333 50.2 202.9C49.2667 204.433 47.8667 205.7 46 206.7C44.1667 207.667 41.9833 208.2 39.45 208.3V212.35H36.25V208.25C32.7167 207.95 29.8667 206.9 27.7 205.1C25.5333 203.267 24.3833 200.783 24.25 197.65H33.35C33.55 199.65 34.5167 200.933 36.25 201.5V193.6C33.65 192.933 31.5667 192.283 30 191.65C28.4667 191.017 27.1167 190 25.95 188.6C24.7833 187.2 24.2 185.283 24.2 182.85C24.2 179.817 25.3167 177.383 27.55 175.55C29.8167 173.717 32.7167 172.683 36.25 172.45V168.4H39.45V172.45C42.95 172.717 45.7167 173.733 47.75 175.5C49.7833 177.267 50.9167 179.717 51.15 182.85H42C41.8 181.05 40.95 179.883 39.45 179.35V187.1C42.2167 187.867 44.35 188.55 45.85 189.15C47.35 189.75 48.6833 190.75 49.85 192.15C51.05 193.517 51.65 195.4 51.65 197.8ZM33.25 182.45C33.25 183.283 33.5 183.983 34 184.55C34.5333 185.117 35.2833 185.617 36.25 186.05V179.1C35.3167 179.267 34.5833 179.633 34.05 180.2C33.5167 180.733 33.25 181.483 33.25 182.45ZM39.45 201.65C40.45 201.483 41.2333 201.083 41.8 200.45C42.4 199.817 42.7 199.033 42.7 198.1C42.7 197.233 42.4167 196.533 41.85 196C41.3167 195.433 40.5167 194.95 39.45 194.55V201.65ZM85.3602 178.95H69.7602V185.85C70.4268 185.117 71.3602 184.517 72.5602 184.05C73.7602 183.583 75.0602 183.35 76.4602 183.35C78.9602 183.35 81.0268 183.917 82.6602 185.05C84.3268 186.183 85.5435 187.65 86.3102 189.45C87.0768 191.25 87.4602 193.2 87.4602 195.3C87.4602 199.2 86.3602 202.3 84.1602 204.6C81.9602 206.867 78.8602 208 74.8602 208C72.1935 208 69.8768 207.55 67.9102 206.65C65.9435 205.717 64.4268 204.433 63.3602 202.8C62.2935 201.167 61.7102 199.283 61.6102 197.15H69.9602C70.1602 198.183 70.6435 199.05 71.4102 199.75C72.1768 200.417 73.2268 200.75 74.5602 200.75C76.1268 200.75 77.2935 200.25 78.0602 199.25C78.8268 198.25 79.2102 196.917 79.2102 195.25C79.2102 193.617 78.8102 192.367 78.0102 191.5C77.2102 190.633 76.0435 190.2 74.5102 190.2C73.3768 190.2 72.4435 190.483 71.7102 191.05C70.9768 191.583 70.4935 192.3 70.2602 193.2H62.0102V171.45H85.3602V178.95ZM94.6797 189.25C94.6797 183.517 95.7797 179 97.9797 175.7C100.213 172.4 103.796 170.75 108.73 170.75C113.663 170.75 117.23 172.4 119.43 175.7C121.663 179 122.78 183.517 122.78 189.25C122.78 195.05 121.663 199.6 119.43 202.9C117.23 206.2 113.663 207.85 108.73 207.85C103.796 207.85 100.213 206.2 97.9797 202.9C95.7797 199.6 94.6797 195.05 94.6797 189.25ZM114.38 189.25C114.38 185.883 114.013 183.3 113.28 181.5C112.546 179.667 111.03 178.75 108.73 178.75C106.43 178.75 104.913 179.667 104.18 181.5C103.446 183.3 103.08 185.883 103.08 189.25C103.08 191.517 103.213 193.4 103.48 194.9C103.746 196.367 104.28 197.567 105.08 198.5C105.913 199.4 107.13 199.85 108.73 199.85C110.33 199.85 111.53 199.4 112.33 198.5C113.163 197.567 113.713 196.367 113.98 194.9C114.246 193.4 114.38 191.517 114.38 189.25Z" fill="white"/>
<path d="M414.58 140.76C414.58 142.96 414 145 412.84 146.88C411.72 148.72 410.04 150.24 407.8 151.44C405.6 152.6 402.98 153.24 399.94 153.36V158.22H396.1V153.3C391.86 152.94 388.44 151.68 385.84 149.52C383.24 147.32 381.86 144.34 381.7 140.58H392.62C392.86 142.98 394.02 144.52 396.1 145.2V135.72C392.98 134.92 390.48 134.14 388.6 133.38C386.76 132.62 385.14 131.4 383.74 129.72C382.34 128.04 381.64 125.74 381.64 122.82C381.64 119.18 382.98 116.26 385.66 114.06C388.38 111.86 391.86 110.62 396.1 110.34V105.48H399.94V110.34C404.14 110.66 407.46 111.88 409.9 114C412.34 116.12 413.7 119.06 413.98 122.82H403C402.76 120.66 401.74 119.26 399.94 118.62V127.92C403.26 128.84 405.82 129.66 407.62 130.38C409.42 131.1 411.02 132.3 412.42 133.98C413.86 135.62 414.58 137.88 414.58 140.76ZM392.5 122.34C392.5 123.34 392.8 124.18 393.4 124.86C394.04 125.54 394.94 126.14 396.1 126.66V118.32C394.98 118.52 394.1 118.96 393.46 119.64C392.82 120.28 392.5 121.18 392.5 122.34ZM399.94 145.38C401.14 145.18 402.08 144.7 402.76 143.94C403.48 143.18 403.84 142.24 403.84 141.12C403.84 140.08 403.5 139.24 402.82 138.6C402.18 137.92 401.22 137.34 399.94 136.86V145.38ZM423.112 118.74V109.2H439.732V153H429.052V118.74H423.112ZM449.751 130.5C449.751 123.62 451.071 118.2 453.711 114.24C456.391 110.28 460.691 108.3 466.611 108.3C472.531 108.3 476.811 110.28 479.451 114.24C482.131 118.2 483.471 123.62 483.471 130.5C483.471 137.46 482.131 142.92 479.451 146.88C476.811 150.84 472.531 152.82 466.611 152.82C460.691 152.82 456.391 150.84 453.711 146.88C451.071 142.92 449.751 137.46 449.751 130.5ZM473.391 130.5C473.391 126.46 472.951 123.36 472.071 121.2C471.191 119 469.371 117.9 466.611 117.9C463.851 117.9 462.031 119 461.151 121.2C460.271 123.36 459.831 126.46 459.831 130.5C459.831 133.22 459.991 135.48 460.311 137.28C460.631 139.04 461.271 140.48 462.231 141.6C463.231 142.68 464.691 143.22 466.611 143.22C468.531 143.22 469.971 142.68 470.931 141.6C471.931 140.48 472.591 139.04 472.911 137.28C473.231 135.48 473.391 133.22 473.391 130.5ZM491.891 130.5C491.891 123.62 493.211 118.2 495.851 114.24C498.531 110.28 502.831 108.3 508.751 108.3C514.671 108.3 518.951 110.28 521.591 114.24C524.271 118.2 525.611 123.62 525.611 130.5C525.611 137.46 524.271 142.92 521.591 146.88C518.951 150.84 514.671 152.82 508.751 152.82C502.831 152.82 498.531 150.84 495.851 146.88C493.211 142.92 491.891 137.46 491.891 130.5ZM515.531 130.5C515.531 126.46 515.091 123.36 514.211 121.2C513.331 119 511.511 117.9 508.751 117.9C505.991 117.9 504.171 119 503.291 121.2C502.411 123.36 501.971 126.46 501.971 130.5C501.971 133.22 502.131 135.48 502.451 137.28C502.771 139.04 503.411 140.48 504.371 141.6C505.371 142.68 506.831 143.22 508.751 143.22C510.671 143.22 512.111 142.68 513.071 141.6C514.071 140.48 514.731 139.04 515.051 137.28C515.371 135.48 515.531 133.22 515.531 130.5Z" fill="white"/>
</svg>