<svg width="219" height="135" viewBox="0 0 219 135" fill="none" xmlns="http://www.w3.org/2000/svg">
<path d="M218.428 105.734H0.571802C0.42015 105.734 0.274719 105.674 0.167485 105.567C0.0602515 105.459 0 105.314 0 105.162C0 105.011 0.0602515 104.865 0.167485 104.758C0.274719 104.651 0.42015 104.591 0.571802 104.591H218.428C218.58 104.591 218.725 104.651 218.833 104.758C218.94 104.865 219 105.011 219 105.162C219 105.314 218.94 105.459 218.833 105.567C218.725 105.674 218.58 105.734 218.428 105.734Z" fill="#3F3D56"/>
<path d="M113.822 30.8629C122.349 30.8629 129.261 23.954 129.261 15.4314C129.261 6.90889 122.349 0 113.822 0C105.296 0 98.3835 6.90889 98.3835 15.4314C98.3835 23.954 105.296 30.8629 113.822 30.8629Z" fill="#2F2E41"/>
<path d="M99.1532 114.493L98.7444 107.499L125.542 102.592L126.146 112.916L99.1532 114.493Z" fill="#FFB8B8"/>
<path d="M100.452 102.385L101.241 115.876L92.7427 116.372L91.457 94.388C92.573 94.3228 93.6908 94.4779 94.7468 94.8445C95.8028 95.2111 96.7762 95.7821 97.6114 96.5247C98.4466 97.2673 99.1273 98.1671 99.6146 99.1727C100.102 100.178 100.386 101.27 100.452 102.385Z" fill="#2F2E41"/>
<path d="M110.809 114.429L106.357 119.842L83.3503 105.257L89.9198 97.2683L110.809 114.429Z" fill="#FFB8B8"/>
<path d="M101.631 122.438L110.215 111.998L116.791 117.401L102.802 134.413C101.938 133.704 101.223 132.831 100.697 131.845C100.17 130.86 99.8435 129.78 99.7348 128.668C99.6261 127.556 99.7375 126.433 100.063 125.364C100.388 124.295 100.921 123.301 101.631 122.438Z" fill="#2F2E41"/>
<path d="M97.9991 89.2566L94.9573 103.59C94.8872 103.92 94.8911 104.261 94.9687 104.59C95.0463 104.918 95.1956 105.225 95.4059 105.489C95.6163 105.753 95.8824 105.967 96.1853 106.116C96.4882 106.265 96.8203 106.345 97.1578 106.35L127.062 106.832C127.399 106.838 127.733 106.769 128.04 106.63C128.347 106.491 128.62 106.286 128.839 106.03C129.058 105.774 129.217 105.472 129.306 105.147C129.394 104.822 129.41 104.481 129.351 104.149L126.735 89.3337C126.642 88.8044 126.365 88.325 125.953 87.9796C125.541 87.6342 125.021 87.4448 124.483 87.4448H100.237C99.7123 87.4448 99.2041 87.6248 98.7968 87.9546C98.3895 88.2844 98.1079 88.744 97.9991 89.2566Z" fill="#2F2E41"/>
<path d="M102.958 94.3032C102.958 94.3032 73.7961 76.0141 68.0781 85.7302C65.2191 90.5882 66.6486 95.3034 68.7928 98.804C70.7827 101.991 73.6391 104.547 77.0282 106.172L100.671 117.736L109.248 108.592L103.53 103.448L102.958 94.3032Z" fill="#2F2E41"/>
<path d="M117.825 91.4454C117.825 91.4454 155.564 80.5863 148.13 101.162C140.697 121.737 112.679 113.735 112.679 113.735L109.82 105.162L119.54 98.3038L117.825 91.4454Z" fill="#2F2E41"/>
<path d="M114.016 32.9926C121.772 32.9926 128.06 26.7078 128.06 18.9551C128.06 11.2024 121.772 4.9176 114.016 4.9176C106.26 4.9176 99.9719 11.2024 99.9719 18.9551C99.9719 26.7078 106.26 32.9926 114.016 32.9926Z" fill="#FFB8B8"/>
<path d="M114.752 93.7138C108.916 93.6256 103.11 92.861 97.4507 91.4355L97.2834 91.3897L89.4466 55.3574C88.7416 52.1911 89.2209 48.8764 90.7941 46.0392C92.3672 43.2021 94.9253 41.0389 97.9852 39.9583C107.437 36.5686 117.739 36.363 127.318 39.3728H127.319C130.533 40.4082 133.239 42.6168 134.896 45.5582C136.553 48.4995 137.039 51.9571 136.259 55.2413L127.505 91.3596L127.382 91.4182C123.744 93.1406 119.195 93.7138 114.752 93.7138Z" fill="#CCCCCC"/>
<path d="M104.225 96.5128C104.509 95.7222 104.964 95.0036 105.557 94.4076C106.149 93.8116 106.865 93.3527 107.654 93.0633C108.443 92.7738 109.286 92.6608 110.124 92.7322C110.961 92.8036 111.773 93.0578 112.502 93.4767L127.933 80.0887L129.329 90.6098L114.461 101.71C113.676 102.887 112.486 103.735 111.117 104.094C109.748 104.453 108.295 104.297 107.033 103.656C105.772 103.015 104.789 101.934 104.271 100.618C103.754 99.3013 103.737 97.8407 104.225 96.5128Z" fill="#FFB8B8"/>
<path d="M118.942 99.4331C118.691 99.4329 118.441 99.3962 118.2 99.3243C117.81 99.2107 117.452 99.0053 117.158 98.7252C116.863 98.4452 116.64 98.0986 116.506 97.7146L114.644 92.4402C114.47 91.9527 114.447 91.4239 114.58 90.9235C114.713 90.4232 114.995 89.975 115.389 89.6383L136.413 77.0221L128.125 40.0661L128.336 40.0153C128.422 39.9941 136.913 38.0624 140.393 47.337C142.83 53.8326 151.847 67.9563 151.211 77.5005C151.09 79.4096 150.329 81.2223 149.05 82.6458C147.772 84.0694 146.051 85.0207 144.165 85.3462L120.499 98.899C120.053 99.2444 119.506 99.4323 118.942 99.4331Z" fill="#CCCCCC"/>
<path d="M121.3 95.2593C121.015 94.4687 120.56 93.7501 119.968 93.1541C119.375 92.5581 118.659 92.0992 117.87 91.8097C117.081 91.5203 116.238 91.4073 115.401 91.4787C114.563 91.5501 113.751 91.8042 113.023 92.2231L97.5917 78.8352L96.1956 89.3563L111.063 100.457C111.848 101.634 113.038 102.482 114.407 102.84C115.776 103.199 117.229 103.043 118.491 102.403C119.753 101.762 120.736 100.681 121.253 99.3644C121.771 98.0478 121.787 96.5872 121.3 95.2593Z" fill="#FFB8B8"/>
<path d="M108.131 99.4331C107.567 99.4323 107.019 99.2444 106.573 98.899L81.1923 86.4893C79.3064 86.1638 77.5853 85.2125 76.3069 83.7889C75.0285 82.3653 74.2674 80.5527 74.1465 78.6436C73.5104 69.0994 84.2431 53.8326 86.6798 47.337C90.1592 38.0624 98.6508 39.9935 98.7366 40.0153L98.9474 40.0661L88.9442 78.1652L111.684 89.6383C112.077 89.975 112.359 90.4232 112.492 90.9236C112.625 91.4239 112.603 91.9527 112.429 92.4402L110.566 97.7146C110.433 98.0986 110.21 98.4452 109.915 98.7252C109.62 99.0053 109.263 99.2107 108.872 99.3243C108.632 99.3962 108.382 99.4329 108.131 99.4331Z" fill="#CCCCCC"/>
<path d="M138.41 105.162H87.5195C86.4583 105.161 85.4409 104.739 84.6906 103.989C83.9402 103.239 83.5181 102.222 83.5168 101.162V73.1564C83.5181 72.0957 83.9402 71.0788 84.6906 70.3288C85.4409 69.5788 86.4583 69.1569 87.5195 69.1556H138.41C139.471 69.1569 140.488 69.5788 141.239 70.3288C141.989 71.0788 142.411 72.0957 142.412 73.1564V101.162C142.411 102.222 141.989 103.239 141.239 103.989C140.488 104.739 139.471 105.161 138.41 105.162Z" fill="#F9A826"/>
<path d="M112.965 90.5881C114.859 90.5881 116.395 89.0528 116.395 87.1589C116.395 85.265 114.859 83.7297 112.965 83.7297C111.07 83.7297 109.534 85.265 109.534 87.1589C109.534 89.0528 111.07 90.5881 112.965 90.5881Z" fill="white"/>
<path d="M99.8313 18.3838C98.9989 16.2735 100.365 13.7586 102.39 12.7364C104.416 11.7142 106.861 11.9086 109.028 12.5823C110.849 13.1485 112.556 14.0259 114.333 14.719C116.084 15.4948 117.998 15.8354 119.909 15.7117C121.804 15.4977 123.691 14.4356 124.466 12.694C125.27 10.8887 124.723 8.68571 123.485 7.14506C122.168 5.65562 120.464 4.56056 118.561 3.98171C114.383 2.51034 109.556 2.46732 105.677 4.60612C101.798 6.74491 99.1618 11.2989 99.9636 15.6539" fill="#2F2E41"/>
<path d="M18.6763 99.0575C19.3828 91.4529 21.3339 84.016 24.4518 77.0435C25.3208 75.1032 26.2773 73.2055 27.3212 71.3506C27.3736 71.2536 27.3862 71.14 27.3564 71.0339C27.3266 70.9278 27.2567 70.8374 27.1615 70.7818C27.0663 70.7261 26.9532 70.7096 26.8461 70.7357C26.7389 70.7619 26.6462 70.8286 26.5873 70.9218C22.7909 77.6779 20.1313 85.0117 18.7148 92.63C18.3208 94.7575 18.0246 96.9 17.8264 99.0575C17.776 99.6016 18.6263 99.5982 18.6763 99.0575Z" fill="#E6E6E6"/>
<path d="M29.38 72.7131C32.353 72.7131 34.7632 70.3041 34.7632 67.3324C34.7632 64.3608 32.353 61.9518 29.38 61.9518C26.407 61.9518 23.9968 64.3608 23.9968 67.3324C23.9968 70.3041 26.407 72.7131 29.38 72.7131Z" fill="#F9A826"/>
<path d="M19.2271 99.2004C19.6854 94.267 20.9512 89.4423 22.9739 84.9189C23.5377 83.6601 24.1582 82.429 24.8354 81.2257C24.8694 81.1627 24.8776 81.0891 24.8582 81.0202C24.8389 80.9514 24.7936 80.8927 24.7318 80.8567C24.6701 80.8206 24.5967 80.8099 24.5272 80.8268C24.4577 80.8438 24.3975 80.887 24.3593 80.9475C21.8965 85.3305 20.171 90.0882 19.2521 95.0306C18.9965 96.4108 18.8043 97.8007 18.6757 99.2004C18.643 99.5534 19.1947 99.5512 19.2271 99.2004H19.2271Z" fill="#E6E6E6"/>
<path d="M26.171 82.1095C28.0998 82.1095 29.6633 80.5467 29.6633 78.6188C29.6633 76.691 28.0998 75.1282 26.171 75.1282C24.2423 75.1282 22.6787 76.691 22.6787 78.6188C22.6787 80.5467 24.2423 82.1095 26.171 82.1095Z" fill="#F9A826"/>
<path d="M18.5311 98.8709C15.8567 94.6993 13.8859 90.1169 12.6973 85.3068C12.3672 83.9677 12.099 82.6155 11.8925 81.2503C11.8805 81.1798 11.8417 81.1167 11.7841 81.0743C11.7264 81.0319 11.6546 81.0134 11.5837 81.023C11.5128 81.0325 11.4483 81.0692 11.404 81.1253C11.3596 81.1814 11.3387 81.2525 11.3458 81.3237C12.101 86.2937 13.6682 91.1059 15.9849 95.5678C16.6326 96.8132 17.3364 98.0272 18.0963 99.2099C18.2878 99.5083 18.7213 99.1675 18.5311 98.8709Z" fill="#E6E6E6"/>
<path d="M11.3414 81.8646C13.2702 81.8646 14.8337 80.3018 14.8337 78.374C14.8337 76.4461 13.2702 74.8833 11.3414 74.8833C9.41268 74.8833 7.84912 76.4461 7.84912 78.374C7.84912 80.3018 9.41268 81.8646 11.3414 81.8646Z" fill="#F9A826"/>
<path d="M7.81006 101.959V95.1008C7.81083 94.419 8.08218 93.7652 8.56456 93.2831C9.04695 92.8009 9.70097 92.5297 10.3832 92.5289H26.3936C27.0758 92.5297 27.7298 92.8009 28.2122 93.2831C28.6946 93.7652 28.966 94.419 28.9667 95.1008V101.959C28.966 102.641 28.6946 103.295 28.2122 103.777C27.7298 104.259 27.0758 104.53 26.3936 104.531H10.3832C9.70097 104.53 9.04695 104.259 8.56456 103.777C8.08218 103.295 7.81083 102.641 7.81006 101.959Z" fill="#F2F2F2"/>
<path d="M179.779 109.964C179.779 113.723 176.731 115.431 172.97 115.431C169.209 115.431 166.16 113.723 166.16 109.964C166.16 106.205 167.674 101.819 172.97 103.331C178.266 101.062 179.779 106.205 179.779 109.964Z" fill="#FF6584"/>
<path d="M172.638 105.092C172.374 105.092 172.118 104.996 171.919 104.822C171.72 104.647 171.591 104.406 171.557 104.144C171.332 102.268 170.089 98.5952 169.565 97.1033L169.565 97.1027C169.512 96.9545 169.496 96.7955 169.518 96.6396C169.539 96.4837 169.599 96.3354 169.691 96.2075C169.779 96.0931 169.89 95.9986 170.017 95.9303C170.144 95.8619 170.284 95.8211 170.428 95.8108C170.571 95.8004 170.716 95.8206 170.851 95.87C170.987 95.9194 171.11 95.997 171.214 96.0975C171.306 96.1943 171.377 96.3089 171.423 96.4344C171.47 96.5599 171.489 96.6936 171.481 96.827C171.379 98.742 172.775 101.836 173.617 103.511C173.697 103.669 173.736 103.843 173.733 104.02C173.73 104.197 173.684 104.37 173.599 104.525C173.514 104.68 173.393 104.812 173.246 104.91C173.098 105.007 172.93 105.068 172.754 105.086C172.715 105.09 172.677 105.092 172.638 105.092Z" fill="#3F3D56"/>
<path d="M177.677 100.868C180.041 98.9338 178.186 94.9764 175.228 95.7361C174.83 95.8312 174.463 96.0268 174.162 96.3043C172.347 98.0179 172.066 102.402 172.066 102.402C172.066 102.402 175.271 102.836 177.677 100.868Z" fill="#3F3D56"/>
</svg>
