<svg width="304" height="317" viewBox="0 0 304 317" fill="none" xmlns="http://www.w3.org/2000/svg">
<g clip-path="url(#clip0)">
<path d="M185.926 104.065L184.599 104.055L184.834 67.6591C184.852 64.8928 184.326 62.1496 183.285 59.5862C182.244 57.0228 180.709 54.6893 178.767 52.7191C176.826 50.7488 174.516 49.1803 171.97 48.1032C169.424 47.026 166.691 46.4613 163.928 46.4412L86.8999 45.8818C81.3191 45.8412 75.9524 48.0217 71.9806 51.9435C68.0088 55.8653 65.7572 61.2071 65.7211 66.7939L64.4303 266.465C64.3942 272.052 66.5765 277.426 70.4972 281.405C74.4179 285.384 79.7559 287.643 85.3367 287.683L162.365 288.243C167.946 288.283 173.312 286.103 177.284 282.181C181.256 278.259 183.507 272.917 183.544 267.331L184.432 129.962L185.759 129.972L185.926 104.065Z" fill="#3F3D56"/>
<path d="M164.741 51.9277L154.687 51.8547C155.142 52.9929 155.31 54.2254 155.177 55.4437C155.045 56.662 154.615 57.8287 153.925 58.841C153.236 59.8532 152.308 60.68 151.224 61.2485C150.139 61.817 148.932 62.1098 147.708 62.101L103.579 61.7805C102.355 61.7715 101.152 61.4612 100.075 60.8771C98.998 60.2929 98.0811 59.4527 97.4047 58.4305C96.7284 57.4083 96.3134 56.2355 96.1964 55.0153C96.0793 53.7952 96.2638 52.5652 96.7336 51.4338L87.3424 51.3656C83.1747 51.3353 79.167 52.9636 76.2009 55.8924C73.2348 58.8211 71.5533 62.8104 71.5263 66.9825L70.2374 266.361C70.2104 270.533 71.8402 274.547 74.7681 277.518C77.6961 280.49 81.6824 282.176 85.8501 282.206L85.8501 282.206L163.249 282.768C165.313 282.783 167.359 282.391 169.27 281.615C171.182 280.838 172.922 279.692 174.391 278.242C175.859 276.791 177.028 275.066 177.83 273.163C178.632 271.26 179.052 269.217 179.065 267.151L180.354 67.773C180.367 65.7071 179.974 63.6586 179.197 61.7443C178.419 59.8299 177.273 58.0873 175.823 56.616C174.374 55.1446 172.649 53.9733 170.747 53.1689C168.846 52.3645 166.805 51.9427 164.741 51.9277L164.741 51.9277Z" fill="white"/>
<path d="M167.037 117.924L84.4369 117.324C84.0313 117.321 83.6436 117.156 83.3587 116.867C83.0738 116.578 82.915 116.188 82.9171 115.782L83.0497 95.2705C83.0528 94.8646 83.2167 94.4766 83.5053 94.1916C83.7939 93.9066 84.1837 93.7479 84.5893 93.7504L167.189 94.3503C167.595 94.3537 167.982 94.518 168.267 94.8072C168.552 95.0963 168.711 95.4867 168.709 95.8927L168.576 116.404C168.573 116.81 168.409 117.198 168.121 117.483C167.832 117.768 167.442 117.927 167.037 117.924ZM84.5853 94.3629C84.342 94.3614 84.1081 94.4566 83.9349 94.6276C83.7617 94.7986 83.6634 95.0314 83.6616 95.275L83.529 115.786C83.5277 116.03 83.623 116.264 83.7939 116.438C83.9648 116.611 84.1975 116.71 84.4408 116.712L167.041 117.312C167.284 117.313 167.518 117.218 167.691 117.047C167.864 116.876 167.962 116.643 167.964 116.399L168.097 95.8882C168.098 95.6446 168.003 95.4104 167.832 95.2369C167.661 95.0634 167.428 94.9649 167.185 94.9628L84.5853 94.3629Z" fill="#3F3D56"/>
<path d="M166.512 199.08L83.9124 198.48C83.5069 198.477 83.1191 198.313 82.8342 198.023C82.5493 197.734 82.3905 197.344 82.3927 196.938L82.6381 158.97C82.6412 158.564 82.8051 158.176 83.0937 157.891C83.3823 157.607 83.7721 157.448 84.1776 157.45L166.777 158.05C167.183 158.054 167.571 158.218 167.856 158.507C168.14 158.796 168.299 159.187 168.297 159.593L168.052 197.56C168.049 197.966 167.885 198.354 167.596 198.639C167.307 198.924 166.918 199.083 166.512 199.08ZM84.1737 158.063C83.9304 158.061 83.6965 158.156 83.5233 158.327C83.3501 158.498 83.2518 158.731 83.25 158.975L83.0045 196.942C83.0032 197.186 83.0985 197.42 83.2694 197.594C83.4404 197.767 83.6731 197.866 83.9164 197.868L166.516 198.468C166.759 198.469 166.993 198.374 167.166 198.203C167.34 198.032 167.438 197.799 167.44 197.556L167.685 159.588C167.687 159.345 167.591 159.11 167.42 158.937C167.249 158.763 167.017 158.665 166.773 158.663L84.1737 158.063Z" fill="#3F3D56"/>
<path d="M166.219 149.77L129.508 149.503C129.102 149.5 128.714 149.335 128.429 149.046C128.145 148.757 127.986 148.367 127.988 147.961L128.121 127.449C128.124 127.043 128.287 126.655 128.576 126.37C128.865 126.085 129.255 125.927 129.66 125.929L166.371 126.196C166.777 126.199 167.164 126.364 167.449 126.653C167.734 126.942 167.893 127.332 167.891 127.738L167.758 148.249C167.755 148.655 167.591 149.043 167.303 149.328C167.014 149.613 166.624 149.772 166.219 149.77ZM129.656 126.542C129.413 126.54 129.179 126.635 129.006 126.806C128.833 126.977 128.734 127.21 128.732 127.454L128.6 147.965C128.598 148.209 128.694 148.443 128.865 148.616C129.036 148.79 129.268 148.888 129.512 148.891L166.223 149.157C166.466 149.159 166.7 149.063 166.873 148.892C167.046 148.721 167.145 148.489 167.146 148.245L167.279 127.734C167.28 127.49 167.185 127.256 167.014 127.082C166.843 126.909 166.61 126.81 166.367 126.808L129.656 126.542Z" fill="#E6E6E6"/>
<path d="M120.303 248.359L83.5916 248.093C83.1861 248.089 82.7984 247.925 82.5135 247.636C82.2286 247.347 82.0698 246.956 82.0719 246.55L82.3193 208.277C82.3224 207.871 82.4863 207.483 82.7749 207.198C83.0635 206.913 83.4533 206.754 83.8589 206.757L120.57 207.023C120.975 207.027 121.363 207.191 121.648 207.48C121.933 207.769 122.092 208.16 122.09 208.565L121.842 246.839C121.839 247.245 121.675 247.633 121.387 247.918C121.098 248.203 120.708 248.362 120.303 248.359ZM83.8549 207.369C83.6116 207.368 83.3777 207.463 83.2045 207.634C83.0313 207.805 82.933 208.038 82.9312 208.281L82.6838 246.555C82.6825 246.798 82.7777 247.033 82.9487 247.206C83.1196 247.38 83.3523 247.478 83.5956 247.48L120.307 247.747C120.55 247.748 120.784 247.653 120.957 247.482C121.13 247.311 121.229 247.078 121.23 246.835L121.478 208.561C121.479 208.317 121.384 208.083 121.213 207.91C121.042 207.736 120.809 207.638 120.566 207.636L83.8549 207.369Z" fill="#E6E6E6"/>
<path d="M165.58 248.688L128.868 248.422C128.463 248.418 128.075 248.254 127.79 247.965C127.505 247.676 127.347 247.285 127.349 246.879L127.596 208.606C127.599 208.2 127.763 207.812 128.052 207.527C128.34 207.242 128.73 207.083 129.136 207.085L165.847 207.352C166.252 207.355 166.64 207.52 166.925 207.809C167.21 208.098 167.369 208.488 167.367 208.894L167.119 247.168C167.116 247.574 166.952 247.962 166.664 248.247C166.375 248.532 165.985 248.691 165.58 248.688ZM129.132 207.698C128.888 207.696 128.655 207.792 128.481 207.963C128.308 208.134 128.21 208.366 128.208 208.61L127.961 246.884C127.959 247.127 128.055 247.362 128.226 247.535C128.396 247.709 128.629 247.807 128.872 247.809L165.584 248.076C165.827 248.077 166.061 247.982 166.234 247.811C166.407 247.64 166.505 247.407 166.507 247.164L166.755 208.89C166.756 208.646 166.661 208.412 166.49 208.239C166.319 208.065 166.086 207.967 165.843 207.965L129.132 207.698Z" fill="#E6E6E6"/>
<path d="M110.73 166.935C110.594 166.933 110.458 166.958 110.331 167.008C110.204 167.059 110.089 167.134 109.991 167.229C109.893 167.324 109.815 167.438 109.761 167.564C109.707 167.689 109.678 167.824 109.676 167.961C109.675 168.098 109.7 168.233 109.751 168.36C109.802 168.487 109.877 168.603 109.972 168.701C110.068 168.799 110.182 168.877 110.307 168.931C110.433 168.984 110.568 169.013 110.704 169.014L110.717 169.014L159.674 169.37C159.949 169.373 160.215 169.267 160.412 169.075C160.609 168.882 160.721 168.619 160.725 168.344C160.728 168.068 160.622 167.802 160.429 167.605C160.237 167.407 159.974 167.294 159.699 167.291L159.687 167.291L110.73 166.935Z" fill="#E6E6E6"/>
<path d="M110.69 173.173C110.553 173.171 110.418 173.195 110.291 173.246C110.164 173.296 110.048 173.371 109.95 173.467C109.852 173.562 109.774 173.675 109.72 173.801C109.666 173.927 109.638 174.062 109.636 174.198C109.634 174.335 109.66 174.471 109.71 174.598C109.761 174.725 109.836 174.84 109.932 174.938C110.027 175.036 110.141 175.114 110.267 175.168C110.392 175.222 110.527 175.25 110.664 175.252L110.676 175.252L131.743 175.405C132.017 175.405 132.28 175.297 132.475 175.103C132.67 174.91 132.78 174.647 132.782 174.373C132.783 174.098 132.677 173.834 132.484 173.638C132.292 173.441 132.03 173.329 131.756 173.326L110.69 173.173Z" fill="#E6E6E6"/>
<path d="M91.456 183.005C90.666 183 90.0202 183.461 90.0165 184.035C90.0128 184.608 90.6526 185.079 91.4425 185.085L158.988 185.575C159.778 185.581 160.424 185.119 160.427 184.546C160.431 183.973 159.791 183.502 159.001 183.496L91.456 183.005Z" fill="#E6E6E6"/>
<path d="M91.4154 189.243C90.6255 189.237 89.9796 189.699 89.976 190.272C89.9723 190.845 90.6121 191.316 91.402 191.322L158.947 191.813C159.737 191.818 160.383 191.357 160.387 190.783C160.391 190.21 159.751 189.739 158.961 189.733L91.4154 189.243Z" fill="#E6E6E6"/>
<path d="M111.77 100.79C111.495 100.788 111.23 100.895 111.034 101.088C110.838 101.281 110.726 101.544 110.724 101.82C110.722 102.095 110.829 102.36 111.021 102.557C111.214 102.754 111.477 102.866 111.752 102.869L111.756 102.869L160.713 103.224C160.988 103.225 161.251 103.116 161.445 102.923C161.64 102.73 161.75 102.467 161.752 102.192C161.754 101.918 161.647 101.653 161.455 101.457C161.263 101.261 161.001 101.149 160.727 101.145L111.77 100.79Z" fill="#E6E6E6"/>
<path d="M111.729 107.027C111.593 107.026 111.458 107.051 111.331 107.102C111.204 107.153 111.089 107.229 110.992 107.324C110.894 107.42 110.817 107.534 110.763 107.66C110.71 107.785 110.682 107.92 110.681 108.057C110.679 108.194 110.705 108.329 110.756 108.456C110.808 108.583 110.883 108.698 110.979 108.796C111.075 108.893 111.189 108.971 111.315 109.024C111.44 109.077 111.575 109.105 111.712 109.106L111.716 109.106L132.782 109.259C133.057 109.26 133.32 109.151 133.515 108.958C133.709 108.765 133.82 108.502 133.821 108.227C133.823 107.953 133.716 107.688 133.524 107.492C133.332 107.296 133.07 107.184 132.796 107.18L111.729 107.027Z" fill="#E6E6E6"/>
<path d="M120.91 149.444L86.4714 149.194L94.6667 135.201C94.8136 134.95 95.0239 134.742 95.2764 134.598C95.5289 134.455 95.8148 134.38 96.1053 134.382C96.3959 134.385 96.6808 134.463 96.9314 134.61C97.1821 134.758 97.3896 134.968 97.5332 135.221L100.957 141.249L106.909 131.085C107.093 130.771 107.356 130.511 107.673 130.331C107.989 130.152 108.347 130.058 108.711 130.061C109.074 130.064 109.431 130.162 109.745 130.346C110.059 130.531 110.318 130.795 110.498 131.111L120.91 149.444ZM87.535 148.589L119.854 148.824L109.966 131.414C109.84 131.19 109.656 131.005 109.435 130.875C109.214 130.745 108.963 130.675 108.707 130.674C108.45 130.672 108.198 130.737 107.975 130.864C107.752 130.991 107.567 131.174 107.437 131.395L100.949 142.474L97.0013 135.524C96.9108 135.364 96.78 135.232 96.622 135.139C96.464 135.046 96.2845 134.996 96.1014 134.995C95.9183 134.994 95.7381 135.041 95.5789 135.131C95.4198 135.222 95.2873 135.353 95.1947 135.511L87.535 148.589Z" fill="#E6E6E6"/>
<path d="M164.963 149.764L130.525 149.514L138.72 135.52C138.867 135.27 139.077 135.062 139.33 134.918C139.582 134.775 139.868 134.7 140.159 134.702C140.449 134.705 140.734 134.783 140.985 134.93C141.235 135.078 141.443 135.288 141.586 135.541L145.01 141.569L150.963 131.405C151.146 131.091 151.41 130.831 151.726 130.651C152.042 130.472 152.4 130.378 152.764 130.381C153.127 130.384 153.484 130.482 153.798 130.666C154.112 130.851 154.372 131.115 154.551 131.431L164.963 149.764ZM131.588 148.909L163.907 149.144L154.02 131.734C153.893 131.51 153.71 131.325 153.489 131.195C153.267 131.065 153.016 130.995 152.76 130.994C152.503 130.992 152.251 131.057 152.028 131.184C151.806 131.311 151.62 131.494 151.491 131.715L145.002 142.794L141.054 135.844C140.964 135.684 140.833 135.551 140.675 135.459C140.517 135.366 140.338 135.316 140.155 135.315C139.971 135.314 139.791 135.361 139.632 135.451C139.473 135.542 139.34 135.672 139.248 135.831L131.588 148.909Z" fill="#E6E6E6"/>
<path d="M120.942 149.441L84.2311 149.174C83.8255 149.171 83.4378 149.006 83.1529 148.717C82.868 148.428 82.7092 148.038 82.7113 147.632L82.8439 127.121C82.847 126.715 83.0109 126.327 83.2995 126.042C83.5881 125.757 83.9779 125.598 84.3834 125.6L121.095 125.867C121.5 125.87 121.888 126.035 122.173 126.324C122.458 126.613 122.616 127.003 122.614 127.409L122.482 147.921C122.479 148.327 122.315 148.715 122.026 149C121.738 149.285 121.348 149.443 120.942 149.441ZM84.3795 126.213C84.1362 126.211 83.9023 126.307 83.7291 126.478C83.5559 126.649 83.4576 126.881 83.4558 127.125L83.3232 147.636C83.3219 147.88 83.4172 148.114 83.5881 148.288C83.7591 148.461 83.9917 148.56 84.235 148.562L120.946 148.828C121.189 148.83 121.423 148.735 121.597 148.564C121.77 148.393 121.868 148.16 121.87 147.916L122.002 127.405C122.004 127.161 121.908 126.927 121.737 126.754C121.567 126.58 121.334 126.482 121.091 126.48L84.3795 126.213Z" fill="#E6E6E6"/>
<path d="M91.6301 214.706C91.355 214.703 91.0901 214.81 90.8935 215.002C90.6969 215.195 90.5847 215.457 90.5815 215.733C90.5783 216.008 90.6843 216.274 90.8764 216.471C91.0685 216.668 91.3308 216.781 91.6059 216.785L91.6167 216.785L112.683 216.938C112.82 216.94 112.956 216.915 113.083 216.864C113.209 216.813 113.325 216.737 113.423 216.641C113.52 216.545 113.598 216.431 113.651 216.305C113.705 216.179 113.733 216.043 113.733 215.906C113.734 215.769 113.708 215.633 113.657 215.507C113.605 215.38 113.529 215.264 113.432 215.167C113.336 215.07 113.221 214.992 113.095 214.94C112.969 214.887 112.833 214.859 112.696 214.859L91.6301 214.706Z" fill="#E6E6E6"/>
<path d="M91.5907 220.831C91.3161 220.83 91.0524 220.939 90.8574 221.132C90.6624 221.325 90.5519 221.588 90.5502 221.863C90.5484 222.138 90.6555 222.403 90.8479 222.599C91.0404 222.795 91.3026 222.907 91.5773 222.91L112.644 223.063C112.918 223.064 113.182 222.956 113.377 222.762C113.572 222.569 113.682 222.306 113.684 222.031C113.686 221.756 113.579 221.492 113.386 221.296C113.194 221.099 112.932 220.987 112.657 220.984L91.5907 220.831Z" fill="#E6E6E6"/>
<path d="M101.998 240.333C100.705 240.324 99.4439 239.931 98.3736 239.204C97.3032 238.477 96.472 237.449 95.985 236.25C95.498 235.051 95.377 233.734 95.6375 232.466C95.8979 231.199 96.528 230.037 97.4481 229.129C98.3682 228.22 99.5369 227.606 100.807 227.362C102.076 227.119 103.39 227.258 104.581 227.762C105.772 228.266 106.788 229.112 107.499 230.194C108.21 231.275 108.585 232.543 108.577 233.837C108.564 235.572 107.864 237.23 106.63 238.448C105.397 239.666 103.731 240.344 101.998 240.333ZM102.079 227.858C100.907 227.85 99.7591 228.189 98.7805 228.834C97.802 229.479 97.0366 230.4 96.5811 231.48C96.1257 232.561 96.0006 233.752 96.2218 234.905C96.443 236.057 97.0005 237.118 97.8237 237.953C98.6469 238.789 99.699 239.361 100.847 239.598C101.995 239.836 103.187 239.727 104.272 239.286C105.358 238.845 106.288 238.091 106.945 237.121C107.603 236.15 107.958 235.006 107.965 233.833C107.974 232.26 107.358 230.748 106.255 229.628C105.151 228.508 103.649 227.872 102.079 227.858L102.079 227.858Z" fill="#E6E6E6"/>
<path d="M157.808 240.739C157.944 240.741 158.08 240.716 158.207 240.665C158.334 240.615 158.449 240.539 158.547 240.444C158.645 240.349 158.723 240.235 158.776 240.109C158.83 239.984 158.859 239.849 158.86 239.712C158.862 239.575 158.837 239.44 158.786 239.313C158.735 239.186 158.66 239.07 158.564 238.973C158.469 238.875 158.355 238.797 158.229 238.743C158.104 238.689 157.969 238.661 157.832 238.66L157.821 238.66L136.755 238.507C136.48 238.504 136.215 238.61 136.019 238.803C135.822 238.995 135.71 239.258 135.707 239.533C135.704 239.808 135.81 240.074 136.002 240.271C136.194 240.469 136.456 240.582 136.731 240.586L136.742 240.586L157.808 240.739Z" fill="#E6E6E6"/>
<path d="M157.848 234.614C157.985 234.615 158.12 234.59 158.247 234.539C158.374 234.488 158.49 234.412 158.587 234.316C158.685 234.221 158.763 234.106 158.816 233.98C158.869 233.854 158.897 233.719 158.898 233.582C158.899 233.445 158.873 233.309 158.821 233.182C158.77 233.055 158.693 232.94 158.597 232.842C158.501 232.745 158.386 232.668 158.26 232.615C158.133 232.562 157.998 232.535 157.861 232.535L136.795 232.382C136.52 232.379 136.255 232.485 136.058 232.678C135.862 232.87 135.749 233.133 135.746 233.408C135.743 233.684 135.849 233.949 136.041 234.146C136.233 234.344 136.496 234.457 136.771 234.461L136.781 234.461L157.848 234.614Z" fill="#E6E6E6"/>
<path d="M147.44 215.111C148.733 215.121 149.994 215.514 151.064 216.241C152.135 216.967 152.966 217.996 153.453 219.195C153.94 220.394 154.061 221.711 153.801 222.978C153.54 224.246 152.91 225.407 151.99 226.316C151.07 227.224 149.901 227.839 148.631 228.082C147.362 228.326 146.048 228.187 144.857 227.683C143.666 227.179 142.65 226.332 141.939 225.251C141.228 224.17 140.853 222.902 140.861 221.608C140.874 219.873 141.574 218.215 142.808 216.997C144.041 215.779 145.707 215.101 147.44 215.111ZM147.359 227.586C148.531 227.595 149.679 227.255 150.657 226.611C151.636 225.966 152.401 225.045 152.857 223.965C153.312 222.884 153.437 221.692 153.216 220.54C152.995 219.388 152.438 218.327 151.614 217.492C150.791 216.656 149.739 216.083 148.591 215.846C147.443 215.609 146.251 215.718 145.166 216.159C144.08 216.6 143.15 217.353 142.493 218.324C141.835 219.295 141.48 220.439 141.473 221.612C141.464 223.185 142.079 224.697 143.183 225.817C144.287 226.937 145.788 227.573 147.359 227.586Z" fill="#E6E6E6"/>
<path d="M94.2867 99.3894L88.7786 105.225L94.6813 110.67L95.9201 109.341L91.4547 105.169L95.6527 100.665L94.2867 99.3894Z" fill="#F9A826"/>
<path d="M98.9614 99.2292L104.864 104.674L99.356 110.51L98.0273 109.269L102.191 104.801L97.6878 100.595L98.9614 99.2292Z" fill="#F9A826"/>
<path d="M94.588 165.375L89.0798 171.211L94.9826 176.655L96.2214 175.326L91.756 171.155L95.954 166.65L94.588 165.375Z" fill="#F9A826"/>
<path d="M99.2629 165.215L105.166 170.659L99.6575 176.495L98.3288 175.254L102.492 170.787L97.9893 166.581L99.2629 165.215Z" fill="#F9A826"/>
</g>
<path d="M216.172 143.994C212.765 138.454 217.591 130.774 220.43 127.626C222.052 126.997 222.119 131.089 221.646 131.718C217.388 137.384 217.388 139.902 218.605 142.42C219.915 145.132 226.107 147.981 229.858 149.03L234.725 154.066C230.163 153.017 219.578 149.534 216.172 143.994Z" fill="#FFC327"/>
<path d="M281.016 143.377C284.423 137.838 279.597 130.158 276.758 127.01C275.136 126.381 275.068 130.472 275.541 131.102C279.799 136.768 279.8 139.286 278.583 141.804C277.273 144.516 271.081 147.364 267.329 148.414L262.463 153.45C267.025 152.401 277.61 148.917 281.016 143.377Z" fill="#FFB800"/>
<path d="M233.492 181.188V186.119H262.463V181.188H233.492Z" fill="#FFB800"/>
<path d="M253.839 181.337C251.318 179.481 250.426 162.527 250.294 154.282H245.961C245.83 162.527 244.937 179.481 242.416 181.337H253.839Z" fill="#FFB800"/>
<path d="M253.833 181.361C251.373 179.502 250.571 168.188 250.443 159.922L247.669 160.23C247.541 168.496 247.726 181.804 247.726 181.804L253.833 181.361Z" fill="#FFC327"/>
<path d="M248.128 160.595V114H217.466C218.428 148.63 238.308 159.492 248.128 160.595Z" fill="#FFB800"/>
<path d="M247.827 160.595V114H278.49C277.528 148.63 257.647 159.492 247.827 160.595Z" fill="#FFC327"/>
<rect x="224.981" y="185.545" width="46.2939" height="16.8341" fill="#704C07"/>
<rect x="247.827" y="185.545" width="23.4476" height="16.8341" fill="#815400"/>
<defs>
<clipPath id="clip0">
<rect width="235.199" height="256.005" fill="white" transform="translate(0 73.1762) rotate(-18.127)"/>
</clipPath>
</defs>
</svg>
