<svg width="520" height="566" viewBox="0 0 520 566" fill="none" xmlns="http://www.w3.org/2000/svg">
<path d="M475.665 192.792L425.315 204.329L404.04 164.153L447.094 147.321L475.665 192.792Z" fill="#2F2E41"/>
<path d="M354.822 246.024L347.853 232.399C347.315 231.347 347.011 230.19 346.963 229.009C346.915 227.827 347.124 226.65 347.576 225.557C348.027 224.465 348.71 223.484 349.577 222.681C350.445 221.879 351.476 221.275 352.599 220.911C353.731 220.545 354.93 220.43 356.111 220.577C357.292 220.724 358.427 221.128 359.436 221.76C360.444 222.393 361.302 223.239 361.95 224.239C362.597 225.239 363.017 226.369 363.182 227.55L365.078 241.159L382.891 269.265V252.51L402.863 254.672L400.067 284.533C399.927 286.03 399.489 287.484 398.779 288.81C398.069 290.135 397.101 291.305 395.933 292.25C394.66 293.279 393.18 294.018 391.593 294.415C390.007 294.813 388.353 294.86 386.747 294.552C385.14 294.245 383.62 293.591 382.292 292.636C380.964 291.68 379.86 290.447 379.056 289.021L354.822 246.024Z" fill="#A0616A"/>
<path d="M505.962 516.814L490.308 517.895L480.052 421.146L420.676 362.772L414.738 517.895H396.926C386.061 422.65 360.007 321.278 393.687 296.831L402.863 281.156L458.461 291.426L460.62 313.046L470.602 338.16L508.208 401.424C510.615 405.472 511.763 410.145 511.507 414.849L505.962 516.814Z" fill="#2F2E41"/>
<path d="M406.96 559.514C405.196 559.514 403.45 559.149 401.833 558.443C400.216 557.737 398.761 556.704 397.56 555.41C396.36 554.115 395.439 552.587 394.855 550.919C394.271 549.252 394.037 547.482 394.167 545.72L396.386 515.734C402.957 508.991 409.054 509.872 414.738 517.355L419.586 544.4C419.918 546.249 419.84 548.149 419.358 549.965C418.877 551.781 418.003 553.469 416.799 554.911C415.595 556.352 414.09 557.511 412.39 558.306C410.69 559.102 408.837 559.514 406.96 559.514Z" fill="#F9A826"/>
<path d="M511.725 566C510.565 566 509.418 565.755 508.358 565.282C507.298 564.809 506.35 564.117 505.574 563.253L475.79 530.045C474.949 529.107 474.308 528.007 473.905 526.813C473.502 525.619 473.347 524.355 473.448 523.098C473.549 521.842 473.905 520.619 474.493 519.505C475.082 518.391 475.891 517.408 476.872 516.617L488.689 507.085L505.962 514.652L519.561 555.078C519.98 556.324 520.097 557.651 519.902 558.95C519.707 560.25 519.206 561.484 518.44 562.551C517.675 563.618 516.666 564.488 515.499 565.088C514.331 565.687 513.038 566 511.725 566Z" fill="#F9A826"/>
<path d="M434.538 190.156C445.384 190.156 454.176 181.352 454.176 170.492C454.176 159.632 445.384 150.828 434.538 150.828C423.692 150.828 414.9 159.632 414.9 170.492C414.9 181.352 423.692 190.156 434.538 190.156Z" fill="#A0616A"/>
<path d="M445.776 254.402H420.946L415.278 204.946C421.322 196.416 423.286 187.505 420.946 178.191H445.776C441.947 186.556 442.605 194.93 452.523 203.324L445.776 254.402Z" fill="#A0616A"/>
<path d="M457.381 292.507C437.93 299.654 419.693 297.445 402.863 284.399C402.457 268.78 398.646 249.4 393.313 228.338C392.513 225.18 392.774 221.846 394.055 218.852C395.337 215.857 397.567 213.368 400.403 211.77L416.358 202.784L434.171 244.943L450.364 201.703L461.132 204.099C463.674 204.668 465.968 206.033 467.683 207.996C469.397 209.959 470.443 212.418 470.667 215.016C473.489 247.085 472.645 276 457.381 292.507Z" fill="#E6E6E6"/>
<path d="M405.022 265.482C393.757 266.573 385.666 261.913 380.192 252.51L383.97 235.185C383.97 229.549 385.764 224.06 389.091 219.514C392.419 214.968 397.106 211.602 402.473 209.905L404.482 209.27L405.022 265.482Z" fill="#E6E6E6"/>
<path d="M485.99 342.773L488.659 354.8C488.963 356.171 488.929 357.594 488.561 358.949C488.193 360.303 487.501 361.547 486.545 362.574C485.589 363.6 484.397 364.378 483.074 364.841C481.75 365.303 480.334 365.436 478.948 365.228C477.777 365.052 476.654 364.636 475.65 364.008C474.646 363.379 473.782 362.55 473.111 361.573C472.441 360.595 471.978 359.49 471.752 358.326C471.526 357.162 471.542 355.964 471.798 354.806L474.712 341.634L466.018 257.374L483.291 249.807L485.99 342.773Z" fill="#A0616A"/>
<path d="M463.319 261.158C474.584 262.249 482.675 257.589 488.149 248.186L484.371 230.861C484.371 225.225 482.577 219.736 479.25 215.19C475.922 210.644 471.235 207.278 465.867 205.581L463.859 204.946L463.319 261.158Z" fill="#E6E6E6"/>
<path d="M445.25 141.127C445.25 141.127 456.404 143.228 458.983 157.157C459.387 159.506 459.46 161.9 459.202 164.27C458.944 166.951 459.318 172.614 465.132 179.282C468.926 183.607 472.461 188.153 475.718 192.896L464.064 196.003L458.856 176.667C456.332 167.293 452.442 158.342 447.313 150.102L447.206 149.93C447.206 149.93 443.335 160.287 432.96 161.707L436.159 157.489C436.159 157.489 424.03 164.51 417.159 166.655C416.375 166.9 415.672 167.354 415.127 167.969C414.581 168.584 414.214 169.337 414.064 170.146C413.914 170.954 413.988 171.789 414.276 172.559C414.565 173.329 415.058 174.006 415.702 174.516C415.751 174.554 415.8 174.593 415.851 174.631C420.905 178.475 431.216 187.647 427.143 196.52C423.069 205.393 427.819 207.01 427.819 207.01L419.06 203.674L415.05 201.954L415.456 204.923L395.883 205.333C395.883 205.333 390.595 205.301 399.989 191.165C399.989 191.165 402.256 185.864 400.395 181.815C398.901 178.748 398.158 175.369 398.226 171.958C398.817 157.706 404.813 128.711 445.25 141.127Z" fill="#2F2E41"/>
<path d="M369.414 192.793L366.632 191.86L392.162 115.548C394.102 109.748 394.883 103.622 394.459 97.5196C394.035 91.4174 392.415 85.4586 389.691 79.9833C386.967 74.5081 383.193 69.6237 378.584 65.609C373.975 61.5943 368.622 58.5279 362.829 56.5849L201.365 2.42463C189.667 -1.49942 176.891 -0.609425 165.848 4.89884C154.805 10.4071 146.399 20.0824 142.48 31.7963L2.42134 450.451C-1.49751 462.165 -0.60868 474.958 4.8923 486.016C10.3933 497.074 20.0558 505.49 31.7542 509.414L193.218 563.575C204.916 567.499 217.692 566.609 228.735 561.1C239.779 555.592 248.184 545.917 252.103 534.203L348.46 246.181L351.242 247.114L369.414 192.793Z" fill="#3F3D56"/>
<path d="M360.765 68.6731L339.689 61.6034C339.862 64.3079 339.368 67.0136 338.251 69.4821C337.134 71.9506 335.428 74.1062 333.283 75.7588C331.138 77.4115 328.62 78.5106 325.951 78.9593C323.281 79.408 320.543 79.1926 317.977 78.3319L225.476 47.3042C222.91 46.4432 220.594 44.9634 218.734 42.9953C216.873 41.0271 215.525 38.631 214.807 36.018C214.089 33.4049 214.023 30.6552 214.617 28.011C215.21 25.3669 216.444 22.9094 218.209 20.8551L198.524 14.2519C189.787 11.3215 180.247 11.9861 172 16.0997C163.753 20.2132 157.476 27.4386 154.549 36.1864L14.6955 454.227C11.7689 462.975 12.4327 472.529 16.5408 480.786C20.6488 489.044 27.8647 495.33 36.6009 498.26H36.601L198.842 552.681C203.168 554.132 207.737 554.716 212.288 554.399C216.839 554.082 221.283 552.87 225.366 550.834C229.45 548.797 233.093 545.974 236.087 542.528C239.081 539.081 241.368 535.078 242.817 530.747L382.671 112.706C384.12 108.375 384.702 103.8 384.386 99.2426C384.069 94.6856 382.859 90.2356 380.825 86.1468C378.791 82.0579 375.973 78.4103 372.531 75.4122C369.089 72.414 365.091 70.1241 360.765 68.6731L360.765 68.6731Z" fill="white"/>
<path d="M320.191 208.921L147.048 150.843C146.199 150.557 145.497 149.945 145.097 149.142C144.697 148.338 144.632 147.409 144.916 146.557L159.304 103.551C159.589 102.7 160.201 101.997 161.003 101.597C161.805 101.197 162.734 101.132 163.584 101.416L336.727 159.494C337.577 159.78 338.279 160.392 338.678 161.195C339.078 161.999 339.143 162.928 338.859 163.78L324.472 206.786C324.186 207.637 323.575 208.34 322.773 208.74C321.97 209.14 321.042 209.205 320.191 208.921ZM163.154 102.7C162.644 102.529 162.087 102.569 161.606 102.809C161.124 103.049 160.758 103.47 160.586 103.981L146.199 146.987C146.028 147.498 146.067 148.056 146.307 148.538C146.547 149.02 146.968 149.387 147.478 149.559L320.621 207.637C321.131 207.808 321.688 207.768 322.17 207.528C322.651 207.288 323.018 206.866 323.189 206.356L337.577 163.35C337.747 162.839 337.708 162.281 337.468 161.799C337.228 161.317 336.807 160.95 336.297 160.778L163.154 102.7Z" fill="#3F3D56"/>
<path d="M263.265 379.083L90.1216 321.005C89.2719 320.719 88.5702 320.107 88.1705 319.303C87.7707 318.5 87.7056 317.57 87.9894 316.719L114.622 237.112C114.907 236.261 115.518 235.558 116.321 235.158C117.123 234.758 118.052 234.693 118.902 234.977L292.045 293.055C292.895 293.341 293.596 293.953 293.996 294.756C294.396 295.56 294.461 296.489 294.177 297.341L267.545 376.948C267.259 377.799 266.648 378.501 265.846 378.902C265.043 379.302 264.115 379.367 263.265 379.083ZM118.472 236.261C117.962 236.09 117.405 236.129 116.924 236.37C116.442 236.61 116.076 237.031 115.904 237.542L89.2719 317.149C89.1016 317.66 89.1407 318.218 89.3805 318.7C89.6204 319.182 90.0414 319.549 90.5513 319.721L263.694 377.799C264.204 377.969 264.761 377.93 265.243 377.69C265.724 377.45 266.091 377.028 266.262 376.518L292.895 296.91C293.065 296.4 293.026 295.842 292.786 295.36C292.546 294.878 292.125 294.51 291.615 294.339L118.472 236.261Z" fill="#3F3D56"/>
<path d="M296.567 275.271L219.615 249.459C218.765 249.173 218.063 248.561 217.664 247.757C217.264 246.954 217.199 246.024 217.483 245.173L231.87 202.167C232.156 201.316 232.767 200.613 233.569 200.213C234.372 199.813 235.3 199.747 236.151 200.031L313.103 225.844C313.953 226.13 314.655 226.742 315.054 227.545C315.454 228.349 315.519 229.278 315.235 230.13L300.848 273.136C300.562 273.987 299.951 274.69 299.149 275.09C298.346 275.49 297.418 275.556 296.567 275.271ZM235.721 201.316C235.211 201.145 234.654 201.184 234.172 201.424C233.691 201.665 233.324 202.086 233.153 202.597L218.765 245.603C218.595 246.114 218.634 246.672 218.874 247.154C219.113 247.636 219.535 248.003 220.044 248.175L296.997 273.987C297.507 274.158 298.064 274.119 298.546 273.878C299.027 273.638 299.394 273.217 299.565 272.706L313.953 229.7C314.123 229.189 314.084 228.631 313.844 228.149C313.604 227.667 313.183 227.3 312.673 227.128L235.721 201.316Z" fill="#E6E6E6"/>
<path d="M132.274 450.841L55.321 425.028C54.4712 424.742 53.7695 424.13 53.3698 423.327C52.9701 422.523 52.9049 421.594 53.1887 420.742L80.0357 340.493C80.3215 339.642 80.9326 338.939 81.735 338.539C82.5375 338.139 83.4657 338.074 84.3161 338.358L161.269 364.17C162.118 364.456 162.82 365.068 163.22 365.872C163.62 366.675 163.685 367.605 163.401 368.456L136.554 448.706C136.268 449.557 135.657 450.259 134.855 450.659C134.052 451.06 133.124 451.125 132.274 450.841ZM83.8865 339.642C83.3763 339.472 82.8193 339.511 82.3378 339.751C81.8563 339.991 81.4897 340.413 81.3182 340.923L54.4712 421.172C54.3009 421.683 54.34 422.241 54.5798 422.723C54.8197 423.205 55.2407 423.572 55.7506 423.744L132.703 449.557C133.213 449.727 133.77 449.688 134.252 449.448C134.733 449.208 135.1 448.786 135.271 448.275L162.119 368.026C162.289 367.515 162.25 366.958 162.01 366.475C161.77 365.993 161.349 365.626 160.839 365.455L83.8865 339.642Z" fill="#E6E6E6"/>
<path d="M227.182 482.676L150.229 456.864C149.379 456.577 148.677 455.966 148.278 455.162C147.878 454.359 147.813 453.429 148.097 452.578L174.944 372.328C175.229 371.477 175.841 370.775 176.643 370.375C177.445 369.974 178.374 369.909 179.224 370.193L256.177 396.006C257.026 396.292 257.728 396.904 258.128 397.707C258.528 398.511 258.593 399.44 258.309 400.292L231.462 480.541C231.176 481.392 230.565 482.095 229.763 482.495C228.96 482.895 228.032 482.96 227.182 482.676ZM178.794 371.477C178.284 371.307 177.727 371.346 177.246 371.586C176.764 371.826 176.398 372.248 176.226 372.758L149.379 453.008C149.209 453.519 149.248 454.076 149.488 454.558C149.728 455.041 150.149 455.408 150.659 455.579L227.611 481.392C228.121 481.562 228.678 481.523 229.16 481.283C229.641 481.043 230.008 480.621 230.179 480.111L257.026 399.861C257.197 399.351 257.158 398.793 256.918 398.311C256.678 397.829 256.257 397.461 255.747 397.29L178.794 371.477Z" fill="#E6E6E6"/>
<path d="M168.169 273.17C167.884 273.072 167.582 273.031 167.28 273.05C166.979 273.068 166.684 273.146 166.413 273.279C166.142 273.412 165.899 273.597 165.7 273.824C165.5 274.051 165.347 274.315 165.249 274.601C165.152 274.887 165.111 275.189 165.131 275.491C165.15 275.793 165.229 276.088 165.362 276.359C165.495 276.63 165.681 276.873 165.908 277.072C166.135 277.271 166.399 277.424 166.685 277.521L166.711 277.53L269.333 311.953C269.909 312.15 270.54 312.109 271.086 311.84C271.633 311.571 272.05 311.096 272.247 310.519C272.443 309.942 272.403 309.31 272.134 308.763C271.866 308.216 271.391 307.798 270.815 307.601L270.791 307.593L168.169 273.17Z" fill="#E6E6E6"/>
<path d="M163.794 286.249C163.509 286.15 163.206 286.109 162.905 286.128C162.604 286.147 162.309 286.225 162.038 286.358C161.767 286.49 161.524 286.676 161.325 286.902C161.125 287.129 160.972 287.393 160.875 287.679C160.777 287.965 160.737 288.268 160.756 288.569C160.775 288.871 160.854 289.166 160.987 289.437C161.12 289.709 161.306 289.951 161.533 290.15C161.76 290.35 162.024 290.502 162.309 290.599L162.336 290.608L206.494 305.42C207.07 305.61 207.698 305.563 208.24 305.291C208.782 305.018 209.195 304.542 209.387 303.966C209.58 303.391 209.537 302.762 209.268 302.217C208.999 301.673 208.526 301.257 207.953 301.061L163.794 286.249Z" fill="#E6E6E6"/>
<path d="M116.617 293.678C114.961 293.123 113.286 293.649 112.884 294.851C112.482 296.053 113.502 297.482 115.158 298.038L256.745 345.531C258.401 346.086 260.075 345.56 260.477 344.359C260.879 343.157 259.859 341.727 258.203 341.171L116.617 293.678Z" fill="#E6E6E6"/>
<path d="M112.241 306.757C110.585 306.201 108.911 306.727 108.509 307.929C108.107 309.131 109.127 310.561 110.783 311.116L252.369 358.609C254.025 359.164 255.7 358.639 256.102 357.437C256.504 356.235 255.484 354.805 253.828 354.25L112.241 306.757Z" fill="#E6E6E6"/>
<path d="M215.853 134.903C215.276 134.709 214.646 134.752 214.101 135.023C213.556 135.294 213.141 135.77 212.947 136.347C212.752 136.925 212.795 137.555 213.064 138.101C213.334 138.647 213.809 139.064 214.385 139.259L214.394 139.262L317.016 173.685C317.592 173.875 318.22 173.828 318.762 173.556C319.304 173.283 319.716 172.807 319.909 172.231C320.102 171.655 320.059 171.027 319.79 170.482C319.521 169.938 319.048 169.522 318.474 169.326L215.853 134.903Z" fill="#E6E6E6"/>
<path d="M211.477 147.981C211.191 147.884 210.889 147.845 210.588 147.865C210.287 147.885 209.993 147.964 209.722 148.098C209.452 148.232 209.21 148.418 209.012 148.645C208.813 148.873 208.661 149.137 208.565 149.424C208.468 149.71 208.429 150.012 208.45 150.314C208.47 150.615 208.55 150.91 208.684 151.181C208.818 151.451 209.004 151.693 209.232 151.891C209.459 152.09 209.724 152.241 210.01 152.338L210.019 152.341L254.177 167.153C254.753 167.342 255.381 167.296 255.923 167.023C256.465 166.751 256.878 166.275 257.07 165.699C257.263 165.123 257.22 164.494 256.951 163.95C256.683 163.405 256.21 162.99 255.636 162.793L211.477 147.981Z" fill="#E6E6E6"/>
<path d="M201.589 243.421L129.401 219.207L156.246 195.441C156.727 195.015 157.312 194.724 157.941 194.596C158.571 194.468 159.223 194.508 159.832 194.712C160.441 194.916 160.985 195.277 161.411 195.759C161.836 196.241 162.127 196.826 162.255 197.457L165.301 212.478L184.801 195.215C185.403 194.682 186.135 194.317 186.923 194.157C187.711 193.997 188.527 194.047 189.29 194.303C190.052 194.558 190.734 195.01 191.267 195.614C191.799 196.217 192.164 196.95 192.324 197.739L201.589 243.421ZM132.052 218.668L199.797 241.392L190.998 198.008C190.885 197.452 190.628 196.936 190.253 196.511C189.878 196.086 189.397 195.767 188.86 195.587C188.323 195.407 187.748 195.371 187.192 195.484C186.637 195.597 186.121 195.854 185.697 196.23L164.442 215.046L160.929 197.726C160.849 197.329 160.665 196.96 160.397 196.656C160.129 196.353 159.786 196.125 159.402 195.996C159.018 195.867 158.607 195.842 158.211 195.923C157.814 196.004 157.446 196.187 157.142 196.456L132.052 218.668Z" fill="#E6E6E6"/>
<path d="M293.932 274.396L221.744 250.182L248.589 226.416C249.07 225.99 249.655 225.698 250.284 225.57C250.913 225.442 251.565 225.483 252.174 225.687C252.783 225.891 253.328 226.252 253.753 226.734C254.179 227.216 254.47 227.801 254.598 228.432L257.644 243.452L277.144 226.19C277.746 225.657 278.478 225.292 279.266 225.132C280.054 224.971 280.87 225.022 281.633 225.277C282.395 225.533 283.077 225.985 283.609 226.589C284.142 227.192 284.507 227.925 284.667 228.714L293.932 274.396ZM224.394 249.643L292.14 272.367L283.341 228.983C283.228 228.427 282.971 227.911 282.596 227.486C282.221 227.061 281.74 226.742 281.203 226.562C280.666 226.381 280.091 226.346 279.535 226.459C278.98 226.572 278.464 226.829 278.04 227.205L256.785 246.021L253.272 228.701C253.191 228.304 253.008 227.935 252.74 227.631C252.472 227.327 252.129 227.1 251.745 226.971C251.361 226.842 250.95 226.817 250.553 226.898C250.157 226.978 249.788 227.162 249.485 227.431L224.394 249.643Z" fill="#E6E6E6"/>
<path d="M201.66 243.436L124.707 217.624C123.857 217.338 123.156 216.726 122.756 215.922C122.356 215.119 122.291 214.189 122.575 213.338L136.962 170.331C137.248 169.48 137.859 168.778 138.662 168.378C139.464 167.977 140.392 167.912 141.243 168.196L218.195 194.009C219.045 194.295 219.747 194.907 220.147 195.71C220.546 196.514 220.611 197.443 220.328 198.295L205.94 241.301C205.654 242.152 205.043 242.855 204.241 243.255C203.438 243.655 202.51 243.72 201.66 243.436ZM140.813 169.48C140.303 169.31 139.746 169.349 139.265 169.589C138.783 169.829 138.416 170.251 138.245 170.761L123.857 213.768C123.687 214.279 123.726 214.836 123.966 215.319C124.206 215.801 124.627 216.168 125.137 216.339L202.089 242.152C202.6 242.322 203.157 242.283 203.638 242.043C204.12 241.803 204.486 241.381 204.658 240.871L219.045 197.865C219.215 197.354 219.176 196.796 218.937 196.314C218.697 195.832 218.276 195.465 217.766 195.293L140.813 169.48Z" fill="#E6E6E6"/>
<path d="M95.177 360.407C94.601 360.211 93.9711 360.253 93.4256 360.522C92.8801 360.791 92.4636 361.266 92.2674 361.843C92.0713 362.419 92.1115 363.05 92.3794 363.597C92.6472 364.143 93.1208 364.561 93.696 364.759L93.7186 364.766L137.877 379.579C138.163 379.676 138.466 379.716 138.768 379.696C139.07 379.677 139.365 379.597 139.636 379.463C139.907 379.328 140.149 379.142 140.348 378.914C140.546 378.685 140.698 378.42 140.794 378.133C140.89 377.846 140.929 377.542 140.907 377.24C140.886 376.938 140.805 376.643 140.67 376.372C140.534 376.102 140.346 375.86 140.118 375.662C139.889 375.464 139.623 375.314 139.335 375.219L95.177 360.407Z" fill="#E6E6E6"/>
<path d="M90.8804 373.249C90.3039 373.059 89.6755 373.105 89.1327 373.377C88.59 373.649 88.177 374.126 87.9842 374.702C87.7913 375.278 87.8343 375.908 88.1038 376.453C88.3733 376.997 88.8472 377.413 89.422 377.609L133.58 392.421C134.157 392.612 134.785 392.566 135.328 392.293C135.871 392.021 136.284 391.545 136.477 390.968C136.67 390.392 136.627 389.762 136.357 389.218C136.088 388.673 135.614 388.257 135.039 388.062L90.8804 373.249Z" fill="#E6E6E6"/>
<path d="M99.3337 421.386C96.6237 420.477 94.2437 418.783 92.4948 416.52C90.7458 414.257 89.7065 411.525 89.5081 408.67C89.3098 405.815 89.9613 402.965 91.3804 400.481C92.7995 397.997 94.9224 395.99 97.4806 394.714C100.039 393.438 102.917 392.95 105.752 393.312C108.588 393.674 111.252 394.87 113.408 396.748C115.564 398.627 117.116 401.103 117.867 403.864C118.618 406.626 118.534 409.548 117.626 412.262C116.405 415.898 113.793 418.901 110.364 420.611C106.935 422.322 102.968 422.6 99.3337 421.386ZM108.084 395.229C105.628 394.405 102.983 394.329 100.483 395.011C97.9835 395.692 95.7419 397.101 94.0417 399.058C92.3414 401.015 91.259 403.433 90.9311 406.006C90.6033 408.579 91.0449 411.192 92.1999 413.513C93.355 415.835 95.1717 417.762 97.4203 419.05C99.669 420.338 102.248 420.929 104.833 420.749C107.417 420.569 109.89 419.626 111.939 418.038C113.988 416.451 115.52 414.291 116.343 411.831C117.442 408.533 117.19 404.933 115.642 401.82C114.094 398.708 111.376 396.338 108.084 395.229H108.084Z" fill="#E6E6E6"/>
<path d="M216.321 460.627C216.606 460.725 216.908 460.766 217.209 460.747C217.511 460.728 217.805 460.649 218.076 460.516C218.347 460.383 218.589 460.198 218.789 459.971C218.988 459.744 219.141 459.48 219.238 459.194C219.335 458.908 219.375 458.605 219.356 458.304C219.336 458.002 219.258 457.707 219.124 457.436C218.991 457.165 218.805 456.923 218.578 456.724C218.351 456.525 218.087 456.372 217.802 456.275L217.779 456.268L173.62 441.455C173.045 441.26 172.415 441.302 171.869 441.571C171.324 441.84 170.908 442.315 170.712 442.891C170.515 443.468 170.556 444.098 170.823 444.645C171.091 445.192 171.564 445.61 172.14 445.807L172.162 445.815L216.321 460.627Z" fill="#E6E6E6"/>
<path d="M220.617 447.785C220.903 447.882 221.206 447.922 221.508 447.903C221.81 447.883 222.105 447.803 222.376 447.669C222.647 447.535 222.889 447.348 223.088 447.12C223.286 446.891 223.438 446.626 223.534 446.339C223.63 446.052 223.669 445.748 223.647 445.446C223.626 445.144 223.545 444.849 223.41 444.578C223.274 444.308 223.086 444.066 222.857 443.869C222.629 443.671 222.363 443.52 222.075 443.425L177.917 428.613C177.341 428.418 176.711 428.459 176.166 428.728C175.62 428.998 175.204 429.472 175.007 430.049C174.811 430.625 174.852 431.256 175.119 431.803C175.387 432.35 175.861 432.767 176.436 432.965L176.459 432.973L220.617 447.785Z" fill="#E6E6E6"/>
<path d="M212.164 399.648C214.874 400.557 217.254 402.251 219.003 404.514C220.752 406.777 221.791 409.509 221.989 412.364C222.188 415.219 221.536 418.069 220.117 420.553C218.698 423.037 216.575 425.044 214.017 426.32C211.459 427.596 208.58 428.084 205.745 427.722C202.91 427.36 200.246 426.164 198.089 424.286C195.933 422.407 194.381 419.931 193.631 417.17C192.88 414.408 192.964 411.486 193.872 408.772C195.093 405.136 197.704 402.133 201.133 400.423C204.563 398.712 208.53 398.434 212.164 399.648ZM203.413 425.805C205.87 426.628 208.515 426.705 211.014 426.023C213.514 425.342 215.755 423.933 217.456 421.976C219.156 420.019 220.238 417.601 220.566 415.028C220.894 412.455 220.453 409.842 219.297 407.521C218.142 405.199 216.326 403.272 214.077 401.984C211.828 400.696 209.249 400.105 206.665 400.285C204.08 400.465 201.607 401.408 199.559 402.995C197.51 404.583 195.977 406.743 195.154 409.203C194.055 412.501 194.307 416.101 195.855 419.214C197.404 422.326 200.122 424.696 203.413 425.805Z" fill="#E6E6E6"/>
<path d="M180.081 119.935L164.493 128.408L173.15 143.909L176.668 141.968L170.155 130.131L182.074 123.554L180.081 119.935Z" fill="#F9A826"/>
<path d="M190.013 122.814L198.67 138.315L183.083 146.788L181.145 143.266L192.966 136.743L186.398 124.808L190.013 122.814Z" fill="#F9A826"/>
<path d="M135.325 258.788L119.737 267.262L128.394 282.762L131.912 280.822L125.399 268.984L137.318 262.408L135.325 258.788Z" fill="#F9A826"/>
<path d="M145.258 261.667L153.915 277.168L138.327 285.641L136.389 282.119L148.21 275.597L141.642 263.661L145.258 261.667Z" fill="#F9A826"/>
</svg>
