<svg width="599" height="571" viewBox="0 0 599 571" fill="none" xmlns="http://www.w3.org/2000/svg">
<path d="M326.275 541.804C476.897 541.804 599 528.155 599 511.318C599 494.482 476.897 480.833 326.275 480.833C175.654 480.833 53.5505 494.482 53.5505 511.318C53.5505 528.155 175.654 541.804 326.275 541.804Z" fill="#3F3D56"/>
<path d="M461.531 477.585L466.234 492.084C466.234 492.084 488.887 515.498 480.694 521.844C472.501 528.19 454.12 494.735 454.12 494.735L450.732 478.367L461.531 477.585Z" fill="#FFB8B8"/>
<path d="M418.072 365.367L424.928 363.08C424.928 363.08 435.594 366.129 437.117 376.799C438.641 387.469 450.068 441.582 450.068 441.582C450.068 441.582 454.639 443.868 451.592 447.679C448.544 451.49 466.828 485.786 466.828 485.786L452.353 492.646C452.353 492.646 423.405 462.16 423.405 459.111C423.405 456.063 424.167 453.014 424.167 449.965C424.167 446.917 423.405 446.917 424.167 444.63C424.675 442.638 424.931 440.59 424.928 438.533L419.596 426.339L418.072 365.367Z" fill="#F9A826"/>
<path d="M68.8803 417.648C106.922 417.648 137.761 354.695 137.761 277.04C137.761 199.384 106.922 136.432 68.8803 136.432C30.8388 136.432 0 199.384 0 277.04C0 354.695 30.8388 417.648 68.8803 417.648Z" fill="#F9A826"/>
<path d="M68.248 278.498C71.6839 217.292 78.6067 175.95 78.6763 175.539L77.1743 175.285C77.1047 175.696 70.1696 217.104 66.7281 278.389C63.5522 334.951 62.786 420.504 77.1739 506.871L78.6767 506.621C64.3133 420.401 65.0777 334.977 68.248 278.498Z" fill="#3F3D56"/>
<path d="M130.444 248.524L68.1648 281.873L68.8838 283.217L131.163 249.868L130.444 248.524Z" fill="#3F3D56"/>
<path d="M3.13772 265.239L2.41907 266.583L64.7067 299.915L65.4253 298.57L3.13772 265.239Z" fill="#3F3D56"/>
<path d="M232.018 384.822C284.075 384.822 326.275 298.677 326.275 192.411C326.275 86.1453 284.075 0 232.018 0C179.961 0 137.761 86.1453 137.761 192.411C137.761 298.677 179.961 384.822 232.018 384.822Z" fill="#E6E6E6"/>
<path d="M230.873 194.382C235.576 110.613 245.051 54.0308 245.146 53.4689L243.644 53.2143C243.549 53.7766 234.061 110.425 229.353 194.273C225.007 271.66 223.959 388.711 243.644 506.871L245.146 506.621C225.487 388.606 226.533 271.686 230.873 194.382Z" fill="#3F3D56"/>
<path d="M316.395 153.638L231.171 199.273L231.89 200.617L317.114 154.982L316.395 153.638Z" fill="#3F3D56"/>
<path d="M141.922 176.51L141.204 177.854L226.439 223.466L227.158 222.122L141.922 176.51Z" fill="#3F3D56"/>
<path d="M153.496 459.799C172.946 459.799 188.713 427.613 188.713 387.91C188.713 348.206 172.946 316.02 153.496 316.02C134.047 316.02 118.279 348.206 118.279 387.91C118.279 427.613 134.047 459.799 153.496 459.799Z" fill="#E6E6E6"/>
<path d="M153.465 391.007L153.674 391.397L185.515 374.346L184.797 373.002L153.532 389.744C155.262 357.885 158.8 336.498 158.872 336.077L157.37 335.823C157.292 336.282 153.087 361.68 151.595 398.429L120.062 381.543L119.343 382.887L151.185 399.938L151.565 399.227C150.371 429.559 151.04 467.485 157.369 505.479L158.872 505.229C151.971 463.804 151.819 422.457 153.465 391.007Z" fill="#3F3D56"/>
<path d="M427.394 293.019C415.149 272.14 390.922 271.167 390.922 271.167C390.922 271.167 367.315 268.12 352.171 299.92C338.056 329.56 318.575 358.178 349.035 365.116L354.537 347.835L357.944 366.403C362.281 366.717 366.632 366.792 370.977 366.627C403.597 365.565 434.663 366.938 433.663 355.126C432.333 339.423 439.177 313.109 427.394 293.019Z" fill="#2F2E41"/>
<path d="M342.041 460.261C341.699 462.444 341.203 464.599 340.556 466.712C339.827 468.779 338.703 470.69 338.037 472.778C335.914 479.435 338.857 486.857 343.557 491.995C347.622 496.425 352.885 499.579 358.708 501.073C362.948 502.149 367.357 502.304 371.727 502.453C383.828 502.868 396.24 503.238 407.707 499.314C411.331 498.042 414.831 496.438 418.16 494.522C419.213 494.015 420.14 493.278 420.872 492.366C421.747 491.11 421.859 489.481 421.851 487.945C421.825 482.769 420.785 477.618 421.032 472.448C421.169 469.584 421.7 466.722 421.439 463.867C421.087 460.635 419.747 457.591 417.601 455.151C415.455 452.71 412.608 450.992 409.45 450.23C406.197 449.525 402.823 449.909 399.511 450.231C390.916 451.064 382.283 451.454 373.647 451.398C364.824 451.341 356.055 449.982 347.276 449.84C344.679 449.798 344.732 450.606 343.905 453.141C343.144 455.476 342.521 457.853 342.041 460.261Z" fill="#2F2E41"/>
<path d="M307.538 456.054C305.167 455.452 302.722 455.19 300.276 455.275C297.705 455.437 295.198 456.139 292.916 457.336C290.635 458.533 288.632 460.197 287.037 462.221C285.457 464.275 284.323 466.635 283.705 469.151C283.087 471.667 283 474.285 283.448 476.837C284.04 479.601 285.008 482.271 286.326 484.772C288.252 488.716 290.562 492.651 294.127 495.179C296.274 496.568 298.587 497.679 301.012 498.486L319.791 505.625C322.553 506.675 325.316 507.725 328.106 508.699C342.115 513.586 356.73 516.518 371.539 517.412C376.048 517.683 380.625 517.759 385.024 516.723C386.099 516.58 387.083 516.044 387.786 515.217C388.144 514.587 388.355 513.884 388.403 513.16L389.558 504.997C389.817 503.86 389.783 502.676 389.46 501.556C388.931 500.184 387.604 499.321 386.339 498.588C373.993 491.432 359.578 487.485 349.187 477.664C346.74 475.352 344.693 471.688 341.721 470.117C338.35 468.336 334.381 467.32 330.897 465.679C323.281 462.091 315.793 457.969 307.538 456.054Z" fill="#2F2E41"/>
<path opacity="0.1" d="M326.286 467.059C332.923 469.158 360.947 483.698 365.75 488.775C365.106 489.009 343.262 476.656 342.606 476.457C336.648 474.653 330.656 472.836 324.998 470.195C323.86 469.664 317.603 467.167 317.887 465.718C318.206 464.082 325.108 466.687 326.286 467.059Z" fill="black"/>
<path d="M409.092 521.646C409.47 521.674 409.844 521.563 410.145 521.333C410.277 521.161 410.374 520.965 410.431 520.755C410.487 520.546 410.502 520.327 410.474 520.112L410.443 508.99C407.274 507.467 403.729 506.978 400.249 506.509L384.014 504.319C384.387 504.369 381.476 511.375 381.922 512.311C382.709 513.959 388.722 515.42 390.419 516.199C396.318 518.904 402.448 521.879 409.092 521.646Z" fill="#FFB8B8"/>
<path d="M358.156 508.952C355.09 509.445 351.669 509.88 349.684 512.288C347.167 515.341 348.238 519.894 349.439 523.676C349.617 524.44 349.975 525.151 350.483 525.749C351.303 526.564 352.559 526.684 353.708 526.757C356.503 526.936 359.478 527.076 361.921 525.692C363.028 524.954 364.093 524.155 365.111 523.299C366.91 522.091 368.89 521.177 370.977 520.593C374.808 519.377 378.754 518.556 382.752 518.144C384.327 518.072 385.887 517.794 387.39 517.319C388.144 517.073 388.831 516.656 389.397 516.101C389.964 515.545 390.395 514.867 390.657 514.119C391.223 512.098 390.059 510.037 388.942 508.265C387.552 506.057 386.078 503.732 384.005 502.107C380.98 499.735 379.483 501.556 376.436 503.073C370.674 505.944 364.511 507.926 358.156 508.952Z" fill="#FFB8B8"/>
<path d="M350.145 511.738L330.682 505.933C328.349 505.113 325.909 504.636 323.439 504.517C320.97 504.518 318.388 505.335 316.787 507.231C315.278 509.019 314.846 511.462 314.469 513.779L313.665 518.737C313.128 521.236 312.976 523.804 313.214 526.349C313.582 528.875 314.86 531.398 317.08 532.621C319.774 534.104 323.075 533.379 326.081 532.759C332.151 531.507 338.328 530.839 344.525 530.763C346.855 530.735 349.299 530.765 351.357 529.664C353.804 528.355 355.268 525.588 355.52 522.805C355.903 518.57 354.504 513.038 350.145 511.738Z" fill="#2F2E41"/>
<path d="M416.743 506.679C419.266 506.233 421.493 504.786 423.911 503.932C427.314 502.73 431.002 502.73 434.608 502.743C435.931 502.748 437.341 502.778 438.442 503.518C440.031 504.585 440.438 506.72 440.708 508.626L442.337 520.126C442.644 522.289 442.948 524.509 442.47 526.64C441.992 528.772 440.553 530.826 438.457 531.376C435.912 532.043 433.417 530.403 431.014 529.325C425.008 526.631 418.026 527.32 411.763 525.306C410.601 524.933 409.356 524.362 408.882 523.227C408.668 522.588 408.591 521.911 408.658 521.24C408.765 517.544 407.992 512.497 409.095 508.964C410.087 505.787 413.927 506.679 416.743 506.679Z" fill="#2F2E41"/>
<path d="M457.932 451.425C461.82 450.441 465.853 450.163 469.839 450.604C473.022 450.958 476.301 451.852 478.625 454.075C481.454 456.781 482.363 460.966 482.438 464.899C482.566 472.721 479.994 480.348 475.155 486.494C473.977 488.042 472.573 489.406 470.991 490.539C469.288 491.614 467.471 492.498 465.574 493.173L423.52 509.912C412.456 514.315 401.354 518.732 389.814 521.635C389.498 521.788 389.155 521.876 388.804 521.894C388.453 521.912 388.102 521.859 387.773 521.738C387.443 521.617 387.141 521.431 386.884 521.192C386.627 520.952 386.422 520.663 386.279 520.341C382.592 515.026 379.501 509.32 377.062 503.327C376.952 503.136 376.885 502.923 376.864 502.703C376.844 502.483 376.871 502.262 376.943 502.053C377.097 501.822 377.312 501.637 377.564 501.52L407.309 484.273C409.492 483.124 411.526 481.71 413.364 480.064C414.651 478.804 415.703 477.326 416.472 475.697C417.088 474.397 417.146 471.331 417.934 470.37C418.705 469.43 421.342 469.355 422.561 468.985C424.279 468.453 425.962 467.812 427.598 467.063C434.252 464.059 440.177 459.695 446.555 456.178C450.13 454.115 453.953 452.518 457.932 451.425Z" fill="#2F2E41"/>
<path opacity="0.1" d="M441.07 464.305C435.959 468.178 429.342 471.738 424.277 475.714C422.549 477.07 393.733 493.419 393.326 495.59C398.051 496.393 428.151 475.144 432.458 473.024C436.764 470.903 440.582 467.913 444.365 464.945C445.329 464.189 449.414 461.915 446.647 461.07C445.088 460.594 442.221 463.531 441.07 464.305Z" fill="black"/>
<path d="M389.886 345.551C405.873 345.551 418.834 332.584 418.834 316.589C418.834 300.594 405.873 287.628 389.886 287.628C373.898 287.628 360.937 300.594 360.937 316.589C360.937 332.584 373.898 345.551 389.886 345.551Z" fill="#FFB8B8"/>
<path d="M402.074 340.978C402.074 340.978 397.504 352.41 405.883 356.983C414.263 361.556 379.982 398.139 379.982 398.139L364.746 353.935C364.746 353.935 377.697 349.362 375.411 337.167L402.074 340.978Z" fill="#FFB8B8"/>
<path d="M383.03 372.226L401.479 351.85L426.452 364.605L422.643 454.538L416.549 461.398C416.549 461.398 390.648 484.262 351.034 465.208C351.034 465.208 337.321 453.776 338.083 436.247C338.845 418.717 336.56 416.431 336.56 416.431L335.798 354.697L373.409 347.313L383.03 372.226Z" fill="#F9A826"/>
<path d="M298.434 469.202L293.73 483.7C293.73 483.7 271.077 507.114 279.27 513.46C287.463 519.807 305.845 486.352 305.845 486.352L309.233 469.984L298.434 469.202Z" fill="#FFB8B8"/>
<path d="M341.892 356.983L335.036 354.697C335.036 354.697 324.371 357.745 322.847 368.415C321.324 379.086 309.897 433.198 309.897 433.198C309.897 433.198 305.326 435.485 308.373 439.295C311.42 443.106 293.137 477.403 293.137 477.403L307.611 484.262C307.611 484.262 336.56 453.776 336.56 450.728C336.56 447.679 335.798 444.63 335.798 441.582C335.798 438.533 336.56 438.533 335.798 436.247C335.289 434.254 335.033 432.206 335.036 430.15L340.369 417.955L341.892 356.983Z" fill="#F9A826"/>
<path d="M421.981 291.006L398.045 278.355L364.993 283.53L358.155 314.009L375.178 313.349L379.933 302.151V313.163L387.788 312.858L392.347 295.032L395.196 314.009L423.12 313.434L421.981 291.006Z" fill="#2F2E41"/>
<path d="M252.312 487.075V531.035H118.098C118.099 519.376 122.728 508.195 130.969 499.951C139.209 491.707 150.385 487.075 162.039 487.075C174.624 483.15 189.174 481.9 204.959 482.311C219.852 482.692 235.842 484.56 252.312 487.075Z" fill="#FF6584"/>
<path d="M233.139 521.445H296.253C297.312 521.445 298.328 521.867 299.077 522.616C299.826 523.365 300.247 524.382 300.247 525.442C300.247 526.502 299.826 527.518 299.077 528.268C298.328 529.017 297.312 529.438 296.253 529.438H233.139V521.445Z" fill="#3F3D56"/>
<path d="M244.07 449.453L260.987 428.938C261.377 428.124 262.005 427.448 262.788 427.001C263.571 426.553 264.472 426.354 265.371 426.431C266.269 426.508 267.123 426.857 267.818 427.432C268.514 428.006 269.018 428.779 269.264 429.647L275.935 453.212L244.07 449.453Z" fill="#3F3D56"/>
<path d="M223.552 459.902L229.944 434.086C229.944 433.184 230.218 432.303 230.731 431.561C231.244 430.818 231.97 430.25 232.814 429.931C233.657 429.612 234.578 429.557 235.453 429.774C236.329 429.991 237.117 430.47 237.714 431.147L253.911 449.511L223.552 459.902Z" fill="#FF6584"/>
<path d="M118.097 531.037H130.88V558.212C130.88 559.891 130.549 561.554 129.907 563.106C129.264 564.657 128.323 566.067 127.136 567.254C125.949 568.442 124.54 569.384 122.989 570.027C121.438 570.669 119.776 571 118.097 571V531.037Z" fill="#FF6584"/>
<path d="M230.743 523.044H293.856C294.915 523.044 295.931 523.465 296.68 524.214C297.43 524.964 297.85 525.98 297.85 527.04C297.85 528.1 297.43 529.117 296.68 529.866C295.931 530.616 294.915 531.037 293.856 531.037H230.743V523.044Z" fill="#FF6584"/>
<path opacity="0.2" d="M252.312 487.074V530.791C245.828 531.48 239.272 530.691 233.137 528.481C227.002 526.272 221.447 522.7 216.89 518.034C212.333 513.368 208.891 507.73 206.825 501.543C204.758 495.356 204.12 488.78 204.958 482.311C219.852 482.692 235.842 484.559 252.312 487.074Z" fill="black"/>
<path d="M252.313 531.037C276.139 531.037 295.454 511.713 295.454 487.876C295.454 464.039 276.139 444.716 252.313 444.716C228.487 444.716 209.172 464.039 209.172 487.876C209.172 511.713 228.487 531.037 252.313 531.037Z" fill="#FF6584"/>
<path d="M293.856 502.263C296.503 502.263 298.649 497.253 298.649 491.073C298.649 484.893 296.503 479.884 293.856 479.884C291.208 479.884 289.062 484.893 289.062 491.073C289.062 497.253 291.208 502.263 293.856 502.263Z" fill="#3F3D56"/>
<path d="M282.272 482.281C282.934 482.281 283.47 481.029 283.47 479.484C283.47 477.939 282.934 476.687 282.272 476.687C281.61 476.687 281.073 477.939 281.073 479.484C281.073 481.029 281.61 482.281 282.272 482.281Z" fill="#3F3D56"/>
<path d="M291.06 476.686C291.721 476.686 292.258 475.434 292.258 473.889C292.258 472.344 291.721 471.092 291.06 471.092C290.398 471.092 289.861 472.344 289.861 473.889C289.861 475.434 290.398 476.686 291.06 476.686Z" fill="#3F3D56"/>
<path d="M248.694 444.235C248.694 444.235 246.296 440.062 246.296 437.517L248.694 444.235Z" fill="#3F3D56"/>
<path d="M249.748 441.536C249.748 441.536 251.055 436.904 252.874 435.125L249.748 441.536Z" fill="#3F3D56"/>
</svg>
