<svg width="697" height="440" viewBox="0 0 697 440" fill="none" xmlns="http://www.w3.org/2000/svg">
<g clip-path="url(#clip0)">
<path d="M443.274 137.657C444.588 123.505 448.219 109.665 454.022 96.6894C455.639 93.0784 457.419 89.5469 459.362 86.0948C459.459 85.9143 459.483 85.703 459.427 85.5055C459.372 85.308 459.242 85.1397 459.065 85.0362C458.887 84.9327 458.677 84.902 458.478 84.9507C458.278 84.9993 458.106 85.1234 457.996 85.2969C450.931 97.8699 445.982 111.518 443.345 125.696C442.612 129.655 442.061 133.642 441.692 137.657C441.598 138.67 443.181 138.664 443.274 137.657Z" fill="#E6E6E6"/>
<path d="M463.193 88.6307C468.726 88.6307 473.211 84.1475 473.211 78.6173C473.211 73.087 468.726 68.6039 463.193 68.6039C457.66 68.6039 453.175 73.087 453.175 78.6173C453.175 84.1475 457.66 88.6307 463.193 88.6307Z" fill="#E6E6E6"/>
<path d="M444.299 137.923C445.152 128.742 447.507 119.764 451.272 111.346C452.321 109.003 453.476 106.712 454.736 104.472C454.799 104.355 454.814 104.218 454.778 104.09C454.742 103.962 454.658 103.853 454.543 103.786C454.428 103.719 454.292 103.699 454.162 103.73C454.033 103.762 453.921 103.842 453.85 103.955C449.266 112.111 446.055 120.966 444.345 130.163C443.87 132.732 443.512 135.319 443.273 137.923C443.212 138.58 444.238 138.576 444.299 137.923Z" fill="#E6E6E6"/>
<path d="M457.221 106.117C460.811 106.117 463.72 103.209 463.72 99.6213C463.72 96.0335 460.811 93.1251 457.221 93.1251C453.632 93.1251 450.722 96.0335 450.722 99.6213C450.722 103.209 453.632 106.117 457.221 106.117Z" fill="#E6E6E6"/>
<path d="M443.003 137.31C438.026 129.547 434.359 121.019 432.147 112.067C431.533 109.575 431.033 107.059 430.649 104.518C430.627 104.387 430.554 104.27 430.447 104.191C430.34 104.112 430.206 104.077 430.074 104.095C429.942 104.113 429.822 104.181 429.74 104.286C429.657 104.39 429.618 104.522 429.632 104.655C431.037 113.904 433.954 122.859 438.265 131.163C439.47 133.481 440.78 135.74 442.194 137.941C442.551 138.496 443.358 137.862 443.003 137.31Z" fill="#E6E6E6"/>
<path d="M429.624 105.661C433.213 105.661 436.123 102.753 436.123 99.1652C436.123 95.5775 433.213 92.6691 429.624 92.6691C426.034 92.6691 423.125 95.5775 423.125 99.1652C423.125 102.753 426.034 105.661 429.624 105.661Z" fill="#E6E6E6"/>
<path d="M423.051 143.058V130.294C423.053 129.025 423.558 127.809 424.455 126.911C425.353 126.014 426.57 125.509 427.84 125.508H457.635C458.905 125.509 460.122 126.014 461.02 126.911C461.917 127.809 462.422 129.025 462.424 130.294V143.058C462.422 144.327 461.917 145.543 461.02 146.44C460.122 147.338 458.905 147.843 457.635 147.844H427.84C426.57 147.843 425.353 147.338 424.455 146.44C423.558 145.543 423.053 144.327 423.051 143.058Z" fill="#F2F2F2"/>
<path d="M456.571 61.6903H443.802C442.532 61.6889 441.315 61.1841 440.417 60.2868C439.52 59.3895 439.015 58.1729 439.013 56.904V4.78631C439.015 3.51734 439.52 2.30077 440.417 1.40347C441.315 0.506176 442.532 0.00143011 443.802 0H456.571C457.841 0.00143011 459.058 0.506176 459.956 1.40347C460.853 2.30077 461.358 3.51734 461.36 4.78631V56.904C461.358 58.1729 460.853 59.3895 459.956 60.2868C459.058 61.1841 457.841 61.6889 456.571 61.6903Z" fill="#F2F2F2"/>
<path d="M460.828 10.1045H439.545V14.359H460.828V10.1045Z" fill="#CCCCCC"/>
<path d="M460.828 43.0768H439.545V47.3313H460.828V43.0768Z" fill="#CCCCCC"/>
<path d="M488.495 61.6903H475.725C474.456 61.6889 473.239 61.1841 472.341 60.2868C471.443 59.3895 470.938 58.1729 470.937 56.904V4.78631C470.938 3.51734 471.443 2.30077 472.341 1.40347C473.239 0.506176 474.456 0.00143011 475.725 0H488.495C489.764 0.00143011 490.981 0.506176 491.879 1.40347C492.777 2.30077 493.282 3.51734 493.283 4.78631V56.904C493.282 58.1729 492.777 59.3895 491.879 60.2868C490.981 61.1841 489.764 61.6889 488.495 61.6903Z" fill="#F2F2F2"/>
<path d="M492.751 10.1045H471.469V14.359H492.751V10.1045Z" fill="#CCCCCC"/>
<path d="M492.751 43.0768H471.469V47.3313H492.751V43.0768Z" fill="#CCCCCC"/>
<path d="M520.418 61.6903H507.649C506.379 61.6889 505.162 61.1841 504.264 60.2868C503.367 59.3895 502.862 58.1729 502.86 56.904V4.78631C502.862 3.51734 503.367 2.30077 504.264 1.40347C505.162 0.506176 506.379 0.00143011 507.649 0H520.418C521.688 0.00143011 522.905 0.506176 523.803 1.40347C524.7 2.30077 525.205 3.51734 525.207 4.78631V56.904C525.205 58.1729 524.7 59.3895 523.803 60.2868C522.905 61.1841 521.688 61.6889 520.418 61.6903Z" fill="#F2F2F2"/>
<path d="M524.675 10.1045H503.393V14.359H524.675V10.1045Z" fill="#CCCCCC"/>
<path d="M524.675 43.0768H503.393V47.3313H524.675V43.0768Z" fill="#CCCCCC"/>
<path d="M537.444 147.844H524.675C523.405 147.843 522.188 147.338 521.291 146.44C520.393 145.543 519.888 144.327 519.886 143.058V90.94C519.888 89.671 520.393 88.4544 521.291 87.5571C522.188 86.6598 523.405 86.1551 524.675 86.1537H537.444C538.714 86.1551 539.931 86.6598 540.829 87.5571C541.727 88.4544 542.232 89.671 542.233 90.94V143.058C542.232 144.327 541.727 145.543 540.829 146.44C539.931 147.338 538.714 147.843 537.444 147.844Z" fill="#F2F2F2"/>
<path d="M541.701 96.2581H520.418V100.513H541.701V96.2581Z" fill="#CCCCCC"/>
<path d="M541.701 129.23H520.418V133.485H541.701V129.23Z" fill="#CCCCCC"/>
<path d="M569.368 147.844H556.599C555.329 147.843 554.112 147.338 553.214 146.44C552.316 145.543 551.811 144.327 551.81 143.058V90.94C551.811 89.671 552.316 88.4544 553.214 87.5571C554.112 86.6598 555.329 86.1551 556.599 86.1537H569.368C570.638 86.1551 571.855 86.6598 572.753 87.5571C573.65 88.4544 574.155 89.671 574.157 90.94V143.058C574.155 144.327 573.65 145.543 572.753 146.44C571.855 147.338 570.638 147.843 569.368 147.844Z" fill="#F2F2F2"/>
<path d="M573.625 96.2581H552.342V100.513H573.625V96.2581Z" fill="#CCCCCC"/>
<path d="M573.625 129.23H552.342V133.485H573.625V129.23Z" fill="#CCCCCC"/>
<path d="M601.292 147.844H588.522C587.253 147.843 586.035 147.338 585.138 146.44C584.24 145.543 583.735 144.327 583.734 143.058V90.94C583.735 89.671 584.24 88.4544 585.138 87.5571C586.035 86.6598 587.253 86.1551 588.522 86.1537H601.292C602.561 86.1551 603.778 86.6598 604.676 87.5571C605.574 88.4544 606.079 89.671 606.08 90.94V143.058C606.079 144.327 605.574 145.543 604.676 146.44C603.778 147.338 602.561 147.843 601.292 147.844Z" fill="#F2F2F2"/>
<path d="M605.548 96.2581H584.266V100.513H605.548V96.2581Z" fill="#CCCCCC"/>
<path d="M605.548 129.23H584.266V133.485H605.548V129.23Z" fill="#CCCCCC"/>
<path d="M453.379 233.998H440.609C439.34 233.996 438.123 233.491 437.225 232.594C436.327 231.697 435.822 230.48 435.821 229.211V177.094C435.822 175.825 436.327 174.608 437.225 173.711C438.123 172.813 439.34 172.309 440.609 172.307H453.379C454.648 172.309 455.865 172.813 456.763 173.711C457.661 174.608 458.166 175.825 458.167 177.094V229.211C458.166 230.48 457.661 231.697 456.763 232.594C455.865 233.491 454.648 233.996 453.379 233.998Z" fill="#F2F2F2"/>
<path d="M457.635 182.412H436.353V186.666H457.635V182.412Z" fill="#CCCCCC"/>
<path d="M457.635 215.384H436.353V219.639H457.635V215.384Z" fill="#CCCCCC"/>
<path d="M485.302 233.998H472.533C471.263 233.996 470.046 233.491 469.148 232.594C468.251 231.697 467.746 230.48 467.744 229.211V177.094C467.746 175.825 468.251 174.608 469.148 173.711C470.046 172.813 471.263 172.309 472.533 172.307H485.302C486.572 172.309 487.789 172.813 488.687 173.711C489.585 174.608 490.09 175.825 490.091 177.094V229.211C490.09 230.48 489.585 231.697 488.687 232.594C487.789 233.491 486.572 233.996 485.302 233.998Z" fill="#F2F2F2"/>
<path d="M489.559 182.412H468.277V186.666H489.559V182.412Z" fill="#CCCCCC"/>
<path d="M489.559 215.384H468.277V219.639H489.559V215.384Z" fill="#CCCCCC"/>
<path d="M517.226 233.998H504.457C503.187 233.996 501.97 233.491 501.072 232.594C500.175 231.697 499.67 230.48 499.668 229.211V177.094C499.67 175.825 500.175 174.608 501.072 173.711C501.97 172.813 503.187 172.309 504.457 172.307H517.226C518.496 172.309 519.713 172.813 520.611 173.711C521.508 174.608 522.013 175.825 522.015 177.094V229.211C522.013 230.48 521.508 231.697 520.611 232.594C519.713 233.491 518.496 233.996 517.226 233.998Z" fill="#F2F2F2"/>
<path d="M521.483 182.412H500.2V186.666H521.483V182.412Z" fill="#CCCCCC"/>
<path d="M521.483 215.384H500.2V219.639H521.483V215.384Z" fill="#CCCCCC"/>
<path d="M552.342 61.6903H539.573C538.303 61.6889 537.086 61.1841 536.188 60.2868C535.291 59.3895 534.786 58.1729 534.784 56.904V4.78631C534.786 3.51734 535.291 2.30077 536.188 1.40347C537.086 0.506176 538.303 0.00143011 539.573 0H552.342C553.612 0.00143011 554.829 0.506176 555.727 1.40347C556.624 2.30077 557.129 3.51734 557.131 4.78631V56.904C557.129 58.1729 556.624 59.3895 555.727 60.2868C554.829 61.1841 553.612 61.6889 552.342 61.6903Z" fill="#F2F2F2"/>
<path d="M556.599 10.1045H535.316V14.359H556.599V10.1045Z" fill="#CCCCCC"/>
<path d="M556.599 43.0768H535.316V47.3313H556.599V43.0768Z" fill="#CCCCCC"/>
<path d="M584.266 61.6903H571.496C570.227 61.6889 569.01 61.1841 568.112 60.2868C567.214 59.3895 566.709 58.1729 566.708 56.904V4.78631C566.709 3.51734 567.214 2.30077 568.112 1.40347C569.01 0.506176 570.227 0.00143011 571.496 0H584.266C585.535 0.00143011 586.753 0.506176 587.65 1.40347C588.548 2.30077 589.053 3.51734 589.054 4.78631V56.904C589.053 58.1729 588.548 59.3895 587.65 60.2868C586.753 61.1841 585.535 61.6889 584.266 61.6903Z" fill="#F2F2F2"/>
<path d="M588.522 10.1045H567.24V14.359H588.522V10.1045Z" fill="#CCCCCC"/>
<path d="M588.522 43.0768H567.24V47.3313H588.522V43.0768Z" fill="#CCCCCC"/>
<path d="M616.189 61.6903H603.42C602.15 61.6889 600.933 61.1841 600.035 60.2868C599.138 59.3895 598.633 58.1729 598.631 56.904V4.78631C598.633 3.51734 599.138 2.30077 600.035 1.40347C600.933 0.506176 602.15 0.00143011 603.42 0H616.189C617.459 0.00143011 618.676 0.506176 619.574 1.40347C620.472 2.30077 620.977 3.51734 620.978 4.78631V56.904C620.977 58.1729 620.472 59.3895 619.574 60.2868C618.676 61.1841 617.459 61.6889 616.189 61.6903Z" fill="#F2F2F2"/>
<path d="M620.446 10.1045H599.164V14.359H620.446V10.1045Z" fill="#CCCCCC"/>
<path d="M620.446 43.0768H599.164V47.3313H620.446V43.0768Z" fill="#CCCCCC"/>
<path d="M648.113 61.6903H635.344C634.074 61.6889 632.857 61.1841 631.959 60.2868C631.062 59.3895 630.557 58.1729 630.555 56.904V4.78631C630.557 3.51734 631.062 2.30077 631.959 1.40347C632.857 0.506176 634.074 0.00143011 635.344 0H648.113C649.383 0.00143011 650.6 0.506176 651.498 1.40347C652.395 2.30077 652.9 3.51734 652.902 4.78631V56.904C652.9 58.1729 652.395 59.3895 651.498 60.2868C650.6 61.1841 649.383 61.6889 648.113 61.6903Z" fill="#F2F2F2"/>
<path d="M652.37 10.1045H631.087V14.359H652.37V10.1045Z" fill="#CCCCCC"/>
<path d="M652.37 43.0768H631.087V47.3313H652.37V43.0768Z" fill="#CCCCCC"/>
<path d="M695.936 63.2857H392.661C392.379 63.2857 392.108 63.1736 391.909 62.9742C391.709 62.7747 391.597 62.5042 391.597 62.2221C391.597 61.94 391.709 61.6694 391.909 61.47C392.108 61.2705 392.379 61.1584 392.661 61.1584H695.936C696.218 61.1584 696.489 61.2705 696.688 61.47C696.888 61.6694 697 61.94 697 62.2221C697 62.5042 696.888 62.7747 696.688 62.9742C696.489 63.1736 696.218 63.2857 695.936 63.2857Z" fill="#CCCCCC"/>
<path d="M695.936 149.439H392.661C392.379 149.439 392.108 149.327 391.909 149.128C391.709 148.928 391.597 148.658 391.597 148.376C391.597 148.094 391.709 147.823 391.909 147.624C392.108 147.424 392.379 147.312 392.661 147.312H695.936C696.218 147.312 696.489 147.424 696.688 147.624C696.888 147.823 697 148.094 697 148.376C697 148.658 696.888 148.928 696.688 149.128C696.489 149.327 696.218 149.439 695.936 149.439Z" fill="#CCCCCC"/>
<path d="M695.936 235.593H392.661C392.379 235.593 392.108 235.481 391.909 235.281C391.709 235.082 391.597 234.812 391.597 234.529C391.597 234.247 391.709 233.977 391.909 233.777C392.108 233.578 392.379 233.466 392.661 233.466H695.936C696.218 233.466 696.489 233.578 696.688 233.777C696.888 233.977 697 234.247 697 234.529C697 234.812 696.888 235.082 696.688 235.281C696.489 235.481 696.218 235.593 695.936 235.593Z" fill="#CCCCCC"/>
<path d="M618.854 223.811C620.169 209.659 623.8 195.819 629.602 182.843C631.219 179.232 632.999 175.701 634.942 172.249C635.039 172.068 635.063 171.857 635.007 171.659C634.952 171.462 634.822 171.293 634.645 171.19C634.468 171.086 634.257 171.056 634.058 171.104C633.858 171.153 633.686 171.277 633.576 171.451C626.511 184.024 621.562 197.672 618.925 211.849C618.192 215.809 617.641 219.796 617.272 223.811C617.178 224.824 618.761 224.817 618.854 223.811Z" fill="#E6E6E6"/>
<path d="M638.773 174.784C644.306 174.784 648.791 170.301 648.791 164.771C648.791 159.241 644.306 154.758 638.773 154.758C633.24 154.758 628.755 159.241 628.755 164.771C628.755 170.301 633.24 174.784 638.773 174.784Z" fill="#E6E6E6"/>
<path d="M619.879 224.077C620.732 214.896 623.087 205.917 626.852 197.499C627.901 195.157 629.056 192.866 630.316 190.626C630.379 190.509 630.394 190.372 630.358 190.244C630.322 190.116 630.238 190.006 630.123 189.939C630.008 189.872 629.872 189.852 629.742 189.884C629.613 189.915 629.501 189.996 629.43 190.108C624.846 198.265 621.635 207.119 619.925 216.317C619.45 218.886 619.092 221.472 618.853 224.077C618.792 224.734 619.818 224.73 619.879 224.077Z" fill="#E6E6E6"/>
<path d="M632.802 192.271C636.391 192.271 639.301 189.363 639.301 185.775C639.301 182.187 636.391 179.279 632.802 179.279C629.212 179.279 626.302 182.187 626.302 185.775C626.302 189.363 629.212 192.271 632.802 192.271Z" fill="#E6E6E6"/>
<path d="M618.583 223.464C613.606 215.7 609.939 207.173 607.727 198.221C607.113 195.729 606.613 193.212 606.229 190.672C606.207 190.541 606.134 190.423 606.027 190.344C605.92 190.265 605.786 190.231 605.654 190.249C605.522 190.266 605.402 190.335 605.32 190.439C605.237 190.544 605.199 190.676 605.212 190.808C606.617 200.058 609.534 209.013 613.845 217.317C615.05 219.634 616.36 221.894 617.774 224.095C618.131 224.65 618.938 224.016 618.583 223.464Z" fill="#E6E6E6"/>
<path d="M605.204 191.815C608.793 191.815 611.703 188.907 611.703 185.319C611.703 181.731 608.793 178.823 605.204 178.823C601.614 178.823 598.705 181.731 598.705 185.319C598.705 188.907 601.614 191.815 605.204 191.815Z" fill="#E6E6E6"/>
<path d="M598.631 229.211V216.448C598.633 215.179 599.138 213.962 600.035 213.065C600.933 212.168 602.15 211.663 603.42 211.661H633.215C634.485 211.663 635.702 212.168 636.6 213.065C637.497 213.962 638.002 215.179 638.004 216.448V229.211C638.002 230.48 637.497 231.697 636.6 232.594C635.702 233.491 634.485 233.996 633.215 233.998H603.42C602.15 233.996 600.933 233.491 600.035 232.594C599.138 231.697 598.633 230.48 598.631 229.211Z" fill="#F2F2F2"/>
<path d="M406.495 386.628H1.06412C0.781899 386.628 0.511251 386.516 0.31169 386.316C0.112128 386.117 0 385.846 0 385.564C0 385.282 0.112128 385.012 0.31169 384.812C0.511251 384.613 0.781899 384.5 1.06412 384.5H406.495C406.777 384.5 407.048 384.613 407.247 384.812C407.447 385.012 407.559 385.282 407.559 385.564C407.559 385.846 407.447 386.117 407.247 386.316C407.048 386.516 406.777 386.628 406.495 386.628Z" fill="#3F3D56"/>
<path d="M211.823 247.293C227.691 247.293 240.554 234.435 240.554 218.575C240.554 202.715 227.691 189.857 211.823 189.857C195.955 189.857 183.092 202.715 183.092 218.575C183.092 234.435 195.955 247.293 211.823 247.293Z" fill="#2F2E41"/>
<path d="M184.524 402.929L183.763 389.912L233.634 380.781L234.758 399.994L184.524 402.929Z" fill="#FFB8B8"/>
<path d="M186.94 380.396L188.408 405.501L172.594 406.425L170.201 365.513C172.278 365.392 174.358 365.68 176.323 366.363C178.289 367.045 180.1 368.107 181.654 369.489C183.209 370.871 184.476 372.546 185.383 374.417C186.289 376.289 186.819 378.32 186.94 380.396Z" fill="#2F2E41"/>
<path d="M206.215 402.81L197.931 412.883L155.115 385.741L167.34 370.873L206.215 402.81Z" fill="#FFB8B8"/>
<path d="M189.135 417.713L205.11 398.285L217.348 408.34L191.314 440C189.707 438.68 188.375 437.056 187.396 435.221C186.417 433.387 185.809 431.377 185.606 429.308C185.404 427.238 185.611 425.149 186.217 423.16C186.822 421.17 187.814 419.32 189.135 417.713Z" fill="#2F2E41"/>
<path d="M182.376 355.963L176.715 382.638C176.585 383.252 176.592 383.888 176.736 384.499C176.881 385.11 177.159 385.681 177.55 386.172C177.942 386.663 178.437 387.062 179.001 387.339C179.564 387.616 180.182 387.765 180.81 387.775L236.462 388.672C237.089 388.682 237.711 388.553 238.283 388.295C238.854 388.037 239.362 387.656 239.769 387.179C240.176 386.702 240.473 386.14 240.637 385.535C240.802 384.93 240.831 384.296 240.722 383.679L235.854 356.107C235.68 355.122 235.165 354.23 234.398 353.587C233.632 352.944 232.663 352.592 231.662 352.592H186.54C185.564 352.592 184.619 352.927 183.861 353.541C183.103 354.154 182.578 355.01 182.376 355.963Z" fill="#2F2E41"/>
<path d="M191.605 365.355C191.605 365.355 137.335 331.319 126.693 349.401C121.373 358.442 124.033 367.217 128.024 373.731C131.727 379.663 137.042 384.419 143.35 387.443L187.348 408.964L203.31 391.946L192.669 382.373L191.605 365.355Z" fill="#2F2E41"/>
<path d="M219.272 360.037C219.272 360.037 289.504 339.828 275.67 378.119C261.837 416.409 209.695 401.519 209.695 401.519L204.374 385.564L222.464 372.801L219.272 360.037Z" fill="#2F2E41"/>
<path d="M212.183 251.256C226.618 251.256 238.319 239.56 238.319 225.133C238.319 210.705 226.618 199.009 212.183 199.009C197.749 199.009 186.047 210.705 186.047 225.133C186.047 239.56 197.749 251.256 212.183 251.256Z" fill="#FFB8B8"/>
<path d="M213.553 364.258C202.692 364.094 191.888 362.671 181.356 360.019L181.044 359.933L166.46 292.877C165.148 286.985 166.04 280.816 168.968 275.536C171.895 270.256 176.656 266.231 182.35 264.22C199.94 257.911 219.112 257.529 236.939 263.13H236.94C242.922 265.057 247.957 269.167 251.041 274.641C254.124 280.115 255.03 286.549 253.577 292.661L237.287 359.877L237.058 359.986C230.288 363.192 221.823 364.258 213.553 364.258Z" fill="#CCCCCC"/>
<path d="M193.962 369.468C194.492 367.996 195.338 366.659 196.441 365.55C197.543 364.441 198.876 363.587 200.344 363.048C201.813 362.509 203.382 362.299 204.941 362.432C206.499 362.565 208.01 363.038 209.366 363.817L238.083 338.902L240.681 358.482L213.013 379.14C211.551 381.33 209.337 382.909 206.789 383.576C204.242 384.244 201.538 383.954 199.189 382.761C196.841 381.569 195.012 379.557 194.049 377.107C193.085 374.657 193.055 371.939 193.962 369.468Z" fill="#FFB8B8"/>
<path d="M221.351 374.902C220.883 374.902 220.419 374.833 219.971 374.699C219.244 374.488 218.579 374.106 218.031 373.584C217.482 373.063 217.067 372.418 216.819 371.704L213.352 361.888C213.028 360.981 212.987 359.997 213.234 359.066C213.482 358.134 214.006 357.3 214.738 356.674L253.865 333.195L238.441 264.42L238.834 264.325C238.993 264.286 254.796 260.691 261.271 277.951C265.806 290.039 282.587 316.324 281.403 334.085C281.178 337.638 279.762 341.012 277.383 343.661C275.004 346.31 271.801 348.08 268.291 348.686L224.249 373.908C223.42 374.551 222.4 374.9 221.351 374.902Z" fill="#CCCCCC"/>
<path d="M225.739 367.134C225.209 365.663 224.363 364.326 223.26 363.217C222.158 362.108 220.825 361.254 219.357 360.715C217.888 360.176 216.319 359.966 214.76 360.099C213.202 360.232 211.691 360.705 210.335 361.484L181.618 336.569L179.02 356.149L206.688 376.807C208.15 378.997 210.364 380.575 212.912 381.243C215.459 381.91 218.164 381.62 220.512 380.428C222.86 379.236 224.689 377.224 225.652 374.774C226.616 372.324 226.646 369.606 225.739 367.134Z" fill="#FFB8B8"/>
<path d="M201.232 374.902C200.182 374.9 199.163 374.551 198.333 373.908L151.099 350.814C147.589 350.208 144.386 348.437 142.007 345.788C139.628 343.139 138.211 339.765 137.987 336.213C136.803 318.451 156.776 290.039 161.311 277.951C167.786 260.691 183.589 264.285 183.749 264.325L184.141 264.42L165.525 335.322L207.844 356.674C208.576 357.3 209.101 358.135 209.348 359.066C209.595 359.997 209.554 360.981 209.23 361.888L205.764 371.704C205.516 372.418 205.1 373.063 204.552 373.585C204.003 374.106 203.338 374.488 202.611 374.699C202.164 374.833 201.699 374.902 201.232 374.902Z" fill="#CCCCCC"/>
<path d="M257.581 385.564H162.874C160.899 385.562 159.005 384.777 157.609 383.381C156.213 381.985 155.427 380.093 155.425 378.119V326.001C155.427 324.027 156.213 322.135 157.609 320.739C159.005 319.343 160.899 318.558 162.874 318.556H257.581C259.555 318.558 261.449 319.343 262.845 320.739C264.242 322.135 265.027 324.027 265.029 326.001V378.119C265.027 380.093 264.242 381.985 262.845 383.381C261.449 384.777 259.555 385.562 257.581 385.564Z" fill="#F9A826"/>
<path d="M210.227 358.442C213.753 358.442 216.612 355.584 216.612 352.06C216.612 348.535 213.753 345.678 210.227 345.678C206.701 345.678 203.842 348.535 203.842 352.06C203.842 355.584 206.701 358.442 210.227 358.442Z" fill="white"/>
<path d="M185.786 224.069C184.237 220.142 186.778 215.462 190.548 213.56C194.319 211.657 198.868 212.019 202.901 213.273C206.29 214.327 209.466 215.959 212.773 217.249C216.032 218.693 219.593 219.327 223.151 219.097C226.678 218.698 230.188 216.722 231.631 213.481C233.127 210.121 232.11 206.021 229.806 203.154C227.355 200.382 224.183 198.344 220.642 197.267C212.866 194.529 203.884 194.449 196.665 198.429C189.446 202.409 184.54 210.884 186.032 218.989" fill="#2F2E41"/>
<path d="M34.7567 374.203C36.0714 360.051 39.7024 346.211 45.5049 333.235C47.1221 329.624 48.902 326.093 50.8448 322.641C50.9422 322.46 50.9657 322.249 50.9103 322.051C50.8549 321.854 50.7248 321.686 50.5476 321.582C50.3704 321.479 50.16 321.448 49.9606 321.496C49.7612 321.545 49.5885 321.669 49.4789 321.843C42.414 334.416 37.4645 348.064 34.8283 362.242C34.095 366.201 33.5439 370.188 33.1749 374.203C33.0811 375.216 34.6635 375.209 34.7567 374.203Z" fill="#E6E6E6"/>
<path d="M54.6763 325.176C60.2091 325.176 64.6943 320.693 64.6943 315.163C64.6943 309.633 60.2091 305.149 54.6763 305.149C49.1434 305.149 44.6582 309.633 44.6582 315.163C44.6582 320.693 49.1434 325.176 54.6763 325.176Z" fill="#F9A826"/>
<path d="M35.7817 374.469C36.6346 365.288 38.9902 356.309 42.7545 347.891C43.8037 345.549 44.9584 343.258 46.2188 341.018C46.282 340.901 46.2972 340.764 46.2612 340.636C46.2252 340.508 46.1409 340.399 46.0259 340.331C45.911 340.264 45.7745 340.244 45.6451 340.276C45.5158 340.307 45.4038 340.388 45.3327 340.5C40.7493 348.657 37.5383 357.511 35.8282 366.709C35.3524 369.278 34.9949 371.864 34.7555 374.469C34.6947 375.126 35.7213 375.122 35.7817 374.469H35.7817Z" fill="#E6E6E6"/>
<path d="M48.7043 342.663C52.2937 342.663 55.2035 339.755 55.2035 336.167C55.2035 332.579 52.2937 329.671 48.7043 329.671C45.1149 329.671 42.2051 332.579 42.2051 336.167C42.2051 339.755 45.1149 342.663 48.7043 342.663Z" fill="#F9A826"/>
<path d="M34.4866 373.856C29.5095 366.092 25.8418 357.565 23.63 348.613C23.0157 346.121 22.5164 343.605 22.1321 341.064C22.1099 340.933 22.0376 340.815 21.9303 340.736C21.8231 340.657 21.6894 340.623 21.5574 340.641C21.4255 340.659 21.3056 340.727 21.223 340.831C21.1404 340.936 21.1016 341.068 21.1148 341.2C22.5201 350.45 25.4368 359.405 29.7481 367.709C30.9536 370.026 32.2633 372.286 33.6774 374.487C34.0338 375.042 34.8406 374.408 34.4866 373.856Z" fill="#E6E6E6"/>
<path d="M21.1066 342.207C24.696 342.207 27.6058 339.299 27.6058 335.711C27.6058 332.123 24.696 329.215 21.1066 329.215C17.5172 329.215 14.6074 332.123 14.6074 335.711C14.6074 339.299 17.5172 342.207 21.1066 342.207Z" fill="#F9A826"/>
<path d="M14.5342 379.603V366.84C14.5356 365.571 15.0406 364.354 15.9383 363.457C16.836 362.56 18.0532 362.055 19.3227 362.053H49.1182C50.3877 362.055 51.6049 362.56 52.5026 363.457C53.4003 364.354 53.9053 365.571 53.9067 366.84V379.603C53.9053 380.872 53.4003 382.089 52.5026 382.986C51.6049 383.883 50.3877 384.388 49.1182 384.39H19.3227C18.0532 384.388 16.836 383.883 15.9383 382.986C15.0406 382.089 14.5356 380.872 14.5342 379.603Z" fill="#F2F2F2"/>
<path d="M334.57 394.499C334.57 401.495 328.896 404.674 321.897 404.674C314.898 404.674 309.225 401.495 309.225 394.499C309.225 387.504 312.041 379.341 321.897 382.156C331.753 377.934 334.57 387.504 334.57 394.499Z" fill="#FF6584"/>
<path d="M321.28 385.433C320.787 385.434 320.311 385.255 319.94 384.931C319.57 384.606 319.33 384.157 319.267 383.669C318.848 380.178 316.535 373.343 315.56 370.566L315.56 370.565C315.461 370.289 315.431 369.994 315.472 369.703C315.513 369.413 315.623 369.137 315.794 368.899C315.958 368.686 316.164 368.511 316.401 368.383C316.637 368.256 316.898 368.18 317.165 368.161C317.433 368.142 317.702 368.179 317.954 368.271C318.206 368.363 318.436 368.507 318.628 368.695C318.8 368.875 318.933 369.088 319.019 369.322C319.104 369.555 319.141 369.804 319.127 370.052C318.936 373.616 321.535 379.375 323.101 382.491C323.249 382.784 323.323 383.11 323.317 383.438C323.312 383.767 323.226 384.09 323.068 384.378C322.91 384.666 322.684 384.912 322.41 385.094C322.136 385.276 321.822 385.388 321.494 385.422C321.423 385.43 321.351 385.434 321.28 385.433Z" fill="#3F3D56"/>
<path d="M330.657 377.572C335.056 373.973 331.605 366.608 326.099 368.022C325.358 368.199 324.675 368.563 324.116 369.079C320.738 372.268 320.215 380.427 320.215 380.427C320.215 380.427 326.179 381.235 330.657 377.572Z" fill="#3F3D56"/>
</g>
<defs>
<clipPath id="clip0">
<rect width="697" height="440" fill="white"/>
</clipPath>
</defs>
</svg>
