<svg width="21" height="10" viewBox="0 0 24 13" fill="none" xmlns="http://www.w3.org/2000/svg">
<path d="M12.0371 1.0019C12.4265 1.00114 12.8039 1.13677 13.1037 1.38523L23.1037 9.71857C23.4441 10.0015 23.6581 10.408 23.6988 10.8487C23.7394 11.2894 23.6033 11.7282 23.3204 12.0686C23.0375 12.4089 22.631 12.623 22.1903 12.6636C21.7496 12.7042 21.3108 12.5681 20.9704 12.2852L12.0371 4.81857L3.10372 12.0186C2.93324 12.157 2.73708 12.2604 2.52652 12.3228C2.31595 12.3852 2.09513 12.4053 1.87675 12.3821C1.65837 12.3589 1.44673 12.2927 1.25401 12.1874C1.06128 12.0821 0.89126 11.9398 0.753721 11.7686C0.601089 11.5972 0.485491 11.3962 0.414169 11.178C0.342848 10.9599 0.317343 10.7294 0.339248 10.501C0.361152 10.2725 0.429996 10.0511 0.541469 9.85048C0.65294 9.64989 0.80464 9.47448 0.987056 9.33524L10.9871 1.28523C11.2955 1.07604 11.6652 0.976283 12.0371 1.0019Z" fill="white"/>
</svg>