<svg width="21" height="10" viewBox="0 0 24 13" fill="none" xmlns="http://www.w3.org/2000/svg">
<path d="M12.0003 12.6668C11.6109 12.6676 11.2335 12.5319 10.9336 12.2835L0.93363 3.95013C0.593269 3.66724 0.379228 3.26072 0.338595 2.82001C0.297963 2.3793 0.434066 1.94049 0.716963 1.60013C0.999861 1.25977 1.40638 1.04573 1.84709 1.0051C2.2878 0.964467 2.7266 1.10057 3.06696 1.38347L12.0003 8.85013L20.9336 1.65013C21.1041 1.51169 21.3003 1.4083 21.5108 1.34592C21.7214 1.28353 21.9422 1.26338 22.1606 1.28661C22.379 1.30984 22.5906 1.376 22.7833 1.48129C22.9761 1.58658 23.1461 1.72892 23.2836 1.90013C23.4363 2.0715 23.5519 2.27255 23.6232 2.49067C23.6945 2.70879 23.72 2.93929 23.6981 3.16773C23.6762 3.39617 23.6074 3.61762 23.4959 3.81822C23.3844 4.01881 23.2327 4.19423 23.0503 4.33347L13.0503 12.3835C12.7418 12.5927 12.3721 12.6924 12.0003 12.6668Z" fill="white" />
</svg>